<svg width="662" height="161" viewBox="0 0 662 161" fill="none" xmlns="http://www.w3.org/2000/svg">
<path d="M56.3 115.95L77 82.5L138.5 3.9H144.35L57.8 115.95H56.3ZM11 115.95L32.15 83.1L59.75 50.4L61.7 55.8L12.5 115.95H11ZM7.55 115.95L12.8 2.4H37.25L32 82.5H32.6L12.2 115.95H7.55ZM51.95 115.95L57.2 2.4H81.65L76.4 82.5H77L56.6 115.95H51.95ZM0.200001 5.39999V0.899999H113.9V5.39999H0.200001ZM75.65 44.4L74 38.85L100.7 3.9H106.25L75.65 44.4ZM119.45 5.39999V0.899999H152.45V5.39999H119.45ZM146.64 115.95C140.74 115.95 135.54 114.75 131.04 112.35C126.54 109.95 123.04 106.7 120.54 102.6C118.04 98.5 116.79 93.85 116.79 88.65C116.79 83.25 118.04 77.95 120.54 72.75C123.04 67.55 126.44 62.85 130.74 58.65C135.14 54.45 140.14 51.1 145.74 48.6C151.34 46 157.19 44.7 163.29 44.7C169.19 44.7 174.39 45.9 178.89 48.3C183.39 50.7 186.89 53.95 189.39 58.05C191.99 62.15 193.29 66.8 193.29 72C193.29 77.4 192.04 82.7 189.54 87.9C187.04 93.1 183.59 97.8 179.19 102C174.79 106.2 169.79 109.6 164.19 112.2C158.69 114.7 152.84 115.95 146.64 115.95ZM147.09 110.7C150.89 110.7 154.24 109.25 157.14 106.35C160.14 103.35 162.64 99.5 164.64 94.8C166.64 90.1 168.14 85 169.14 79.5C170.24 73.9 170.79 68.55 170.79 63.45C170.79 59.05 170.24 55.7 169.14 53.4C168.14 51.1 166.04 49.95 162.84 49.95C159.04 49.95 155.64 51.45 152.64 54.45C149.74 57.35 147.29 61.15 145.29 65.85C143.29 70.55 141.74 75.7 140.64 81.3C139.64 86.8 139.14 92.1 139.14 97.2C139.14 101.6 139.69 104.95 140.79 107.25C141.89 109.55 143.99 110.7 147.09 110.7ZM202.989 114L219.189 46.5H239.739L222.939 114H202.989ZM205.089 51V46.5H237.939V51H205.089ZM229.239 87.9L236.289 58.95H237.489C241.189 54.05 244.439 50.45 247.239 48.15C250.139 45.85 253.239 44.7 256.539 44.7C259.139 44.7 261.189 45.3 262.689 46.5C264.289 47.6 265.439 49 266.139 50.7C266.939 52.3 267.339 53.8 267.339 55.2C267.339 57.4 266.489 59.6 264.789 61.8C263.089 64 260.739 65.1 257.739 65.1C255.639 65.1 253.889 64.6 252.489 63.6C251.089 62.5 249.839 61.45 248.739 60.45C247.739 59.45 246.689 58.95 245.589 58.95C244.189 58.95 242.689 59.95 241.089 61.95C239.489 63.95 237.889 66.5 236.289 69.6C234.689 72.6 233.239 75.75 231.939 79.05C230.739 82.35 229.839 85.3 229.239 87.9ZM262.36 114L289.96 0.899999H310.51L282.31 114H262.36ZM317.11 115.95C313.31 115.95 309.81 114.9 306.61 112.8C303.51 110.6 301.96 107.15 301.96 102.45C301.96 99.75 302.41 97.2 303.31 94.8C304.21 92.3 305.06 89.85 305.86 87.45C306.76 85.05 307.21 82.75 307.21 80.55C307.21 78.45 306.46 76.9 304.96 75.9C303.66 77.2 302.11 78.2 300.31 78.9C298.61 79.6 296.96 79.95 295.36 79.95C294.56 79.95 293.81 79.85 293.11 79.65C292.41 79.35 291.71 79 291.01 78.6L292.21 73.65C293.71 72.85 295.51 72.25 297.61 71.85C299.81 71.45 301.61 71.25 303.01 71.25C305.61 68.55 307.76 65.7 309.46 62.7C311.16 59.6 312.81 56.7 314.41 54C316.11 51.2 318.01 48.95 320.11 47.25C322.31 45.55 325.11 44.7 328.51 44.7C331.61 44.7 334.06 45.35 335.86 46.65C337.76 47.95 339.11 49.55 339.91 51.45C340.71 53.25 341.11 54.95 341.11 56.55C341.11 58.85 340.36 60.9 338.86 62.7C337.36 64.4 335.06 65.25 331.96 65.25C329.56 65.25 327.51 64.65 325.81 63.45C324.21 62.15 323.41 60.25 323.41 57.75C323.41 56.95 323.46 56.2 323.56 55.5C323.66 54.7 323.71 54.1 323.71 53.7C323.71 53.1 323.61 52.65 323.41 52.35C323.21 52.05 322.91 51.9 322.51 51.9C321.61 51.9 320.56 52.7 319.36 54.3C318.16 55.9 316.86 57.85 315.46 60.15C314.16 62.45 312.86 64.75 311.56 67.05C310.36 69.25 309.21 71 308.11 72.3C312.91 73.8 316.46 75.5 318.76 77.4C321.16 79.3 322.71 81.3 323.41 83.4C324.21 85.5 324.61 87.6 324.61 89.7C324.61 92.2 324.36 94.8 323.86 97.5C323.36 100.1 323.11 102.4 323.11 104.4C323.11 105.8 323.31 106.8 323.71 107.4C324.11 107.9 324.66 108.15 325.36 108.15C327.06 108.15 329.06 106.85 331.36 104.25C333.66 101.55 335.91 97.55 338.11 92.25L342.16 94.2C338.76 101.7 334.96 107.2 330.76 110.7C326.66 114.2 322.11 115.95 317.11 115.95ZM275.86 5.39999V0.899999H308.71V5.39999H275.86ZM367.456 115.65C360.256 115.65 354.506 114.2 350.206 111.3C346.006 108.4 343.906 104.8 343.906 100.5C343.906 97.4 344.856 95.1 346.756 93.6C348.756 92.1 351.006 91.35 353.506 91.35C356.606 91.35 358.906 92.25 360.406 94.05C361.906 95.75 362.656 97.6 362.656 99.6C362.656 101.3 362.256 102.6 361.456 103.5C360.756 104.4 360.406 105.4 360.406 106.5C360.406 107.5 361.056 108.45 362.356 109.35C363.756 110.15 366.206 110.55 369.706 110.55C374.506 110.55 377.956 109.75 380.056 108.15C382.156 106.55 383.206 104.75 383.206 102.75C383.206 100.55 382.206 98.5 380.206 96.6C378.306 94.7 375.906 92.85 373.006 91.05C370.106 89.15 367.206 87.1 364.306 84.9C361.406 82.6 358.956 80 356.956 77.1C355.056 74.2 354.106 70.75 354.106 66.75C354.106 62.65 355.206 58.95 357.406 55.65C359.706 52.35 362.806 49.7 366.706 47.7C370.706 45.7 375.206 44.7 380.206 44.7C384.006 44.7 387.456 45.3 390.556 46.5C393.656 47.6 396.156 49.15 398.056 51.15C399.956 53.05 400.906 55.3 400.906 57.9C400.906 60 400.206 61.85 398.806 63.45C397.506 64.95 395.506 65.7 392.806 65.7C390.106 65.7 388.006 64.95 386.506 63.45C385.106 61.95 384.406 60.25 384.406 58.35C384.406 57.25 384.556 56.25 384.856 55.35C385.156 54.35 385.306 53.5 385.306 52.8C385.306 51.4 384.606 50.45 383.206 49.95C381.806 49.45 380.256 49.2 378.556 49.2C376.056 49.2 373.606 49.75 371.206 50.85C368.906 51.85 367.756 53.5 367.756 55.8C367.756 57.8 368.756 59.65 370.756 61.35C372.756 63.05 375.206 64.8 378.106 66.6C381.106 68.4 384.056 70.45 386.956 72.75C389.856 75.05 392.306 77.75 394.306 80.85C396.306 83.95 397.306 87.7 397.306 92.1C397.306 96.8 396.006 100.95 393.406 104.55C390.806 108.05 387.256 110.8 382.756 112.8C378.356 114.7 373.256 115.65 367.456 115.65ZM407.673 114L435.273 0.899999H455.823L427.623 114H407.673ZM469.023 115.65C464.423 115.65 460.823 114.55 458.223 112.35C455.623 110.15 454.323 106.95 454.323 102.75C454.323 101.75 454.373 100.9 454.473 100.2C454.673 99.4 454.823 98.65 454.923 97.95L464.523 60.6C464.723 59.9 464.873 59 464.973 57.9C465.173 56.7 465.273 55.75 465.273 55.05C465.273 53.95 464.923 53.1 464.223 52.5C463.623 51.9 462.773 51.6 461.673 51.6C459.473 51.6 456.673 52.75 453.273 55.05C449.873 57.35 446.523 60.6 443.223 64.8C440.023 68.9 437.623 73.75 436.023 79.35L440.973 59.7H442.023C445.023 55.9 448.723 52.45 453.123 49.35C457.523 46.25 462.823 44.7 469.023 44.7C473.423 44.7 477.173 45.7 480.273 47.7C483.473 49.7 485.073 53.05 485.073 57.75C485.073 59.55 484.773 61.75 484.173 64.35L474.873 100.65C474.573 101.95 474.373 103 474.273 103.8C474.173 104.6 474.123 105.25 474.123 105.75C474.123 107.75 474.923 108.75 476.523 108.75C478.423 108.75 480.673 107.35 483.273 104.55C485.973 101.75 488.673 97.15 491.373 90.75L495.123 92.1C492.823 98.3 490.273 103.15 487.473 106.65C484.673 110.05 481.723 112.4 478.623 113.7C475.523 115 472.323 115.65 469.023 115.65ZM421.173 5.39999V0.899999H454.023V5.39999H421.173ZM526.62 115.95C520.72 115.95 515.52 114.75 511.02 112.35C506.52 109.95 503.02 106.7 500.52 102.6C498.02 98.5 496.77 93.85 496.77 88.65C496.77 83.25 498.02 77.95 500.52 72.75C503.02 67.55 506.42 62.85 510.72 58.65C515.12 54.45 520.12 51.1 525.72 48.6C531.32 46 537.17 44.7 543.27 44.7C549.17 44.7 554.37 45.9 558.87 48.3C563.37 50.7 566.87 53.95 569.37 58.05C571.97 62.15 573.27 66.8 573.27 72C573.27 77.4 572.02 82.7 569.52 87.9C567.02 93.1 563.57 97.8 559.17 102C554.77 106.2 549.77 109.6 544.17 112.2C538.67 114.7 532.82 115.95 526.62 115.95ZM527.07 110.7C530.87 110.7 534.22 109.25 537.12 106.35C540.12 103.35 542.62 99.5 544.62 94.8C546.62 90.1 548.12 85 549.12 79.5C550.22 73.9 550.77 68.55 550.77 63.45C550.77 59.05 550.22 55.7 549.12 53.4C548.12 51.1 546.02 49.95 542.82 49.95C539.02 49.95 535.62 51.45 532.62 54.45C529.72 57.35 527.27 61.15 525.27 65.85C523.27 70.55 521.72 75.7 520.62 81.3C519.62 86.8 519.12 92.1 519.12 97.2C519.12 101.6 519.67 104.95 520.77 107.25C521.87 109.55 523.97 110.7 527.07 110.7ZM570.37 156.3L596.47 46.5H617.02L590.32 156.3H570.37ZM559.42 160.35V155.85H605.02V160.35H559.42ZM621.07 115.65C616.27 115.65 612.47 114.7 609.67 112.8C606.87 110.8 604.72 108.1 603.22 104.7H602.17L606.22 89.55C606.12 90.55 606.02 91.5 605.92 92.4C605.82 93.3 605.77 94.1 605.77 94.8C605.77 98.8 606.87 102.3 609.07 105.3C611.27 108.3 614.17 109.8 617.77 109.8C620.97 109.8 623.77 108.65 626.17 106.35C628.57 103.95 630.62 100.85 632.32 97.05C634.12 93.25 635.57 89.2 636.67 84.9C637.87 80.5 638.72 76.25 639.22 72.15C639.72 68.05 639.97 64.55 639.97 61.65C639.97 57.65 639.47 54.85 638.47 53.25C637.47 51.65 635.87 50.85 633.67 50.85C631.37 50.85 628.57 51.7 625.27 53.4C622.07 55.1 618.97 57.9 615.97 61.8C612.97 65.6 610.62 70.75 608.92 77.25L613.72 56.55H614.77C616.67 53.75 619.52 51.1 623.32 48.6C627.12 46 631.57 44.7 636.67 44.7C641.07 44.7 645.12 45.8 648.82 48C652.52 50.2 655.52 53.35 657.82 57.45C660.12 61.55 661.27 66.55 661.27 72.45C661.27 77.95 660.22 83.3 658.12 88.5C656.02 93.6 653.07 98.2 649.27 102.3C645.57 106.4 641.27 109.65 636.37 112.05C631.57 114.45 626.47 115.65 621.07 115.65ZM582.37 51V46.5H615.22V51H582.37Z" fill="#90957A" fill-opacity="0.22"/>
</svg>
