<svg width="335" height="107" viewBox="0 0 335 107" fill="none" xmlns="http://www.w3.org/2000/svg">
<path d="M0 0H335V106.064H0V0Z" fill="black"/>
<mask id="path-2-inside-1_4497_4168" fill="white">
<path d="M7.73047 5.56836H329.33V100.23H7.73047V5.56836Z"/>
</mask>
<path d="M7.73047 5.56836V4.56836H6.73047V5.56836H7.73047ZM329.33 5.56836H330.33V4.56836H329.33V5.56836ZM329.33 100.23V101.23H330.33V100.23H329.33ZM7.73047 100.23H6.73047V101.23H7.73047V100.23ZM7.73047 6.56836H329.33V4.56836H7.73047V6.56836ZM328.33 5.56836V100.23H330.33V5.56836H328.33ZM329.33 99.2304H7.73047V101.23H329.33V99.2304ZM8.73047 100.23V5.56836H6.73047V100.23H8.73047Z" fill="white" mask="url(#path-2-inside-1_4497_4168)"/>
</svg>
