<svg width="1272" height="60" viewBox="0 0 1272 60" fill="none" xmlns="http://www.w3.org/2000/svg">
<path d="M8.2 44.576C5.928 44.576 4.152 44.112 2.872 43.184C1.592 42.256 0.952 41.12 0.952 39.776C0.952 38.848 1.224 38.16 1.768 37.712C2.344 37.232 3.016 36.992 3.784 36.992C4.616 36.992 5.24 37.232 5.656 37.712C6.104 38.192 6.328 38.72 6.328 39.296C6.328 39.84 6.2 40.272 5.944 40.592C5.688 40.912 5.56 41.264 5.56 41.648C5.56 42 5.784 42.32 6.232 42.608C6.712 42.864 7.528 42.992 8.68 42.992C10.376 42.992 11.592 42.704 12.328 42.128C13.096 41.52 13.48 40.832 13.48 40.064C13.48 39.296 13.176 38.608 12.568 38C11.96 37.392 11.192 36.816 10.264 36.272C9.368 35.696 8.456 35.088 7.528 34.448C6.6 33.776 5.832 32.992 5.224 32.096C4.616 31.2 4.312 30.112 4.312 28.832C4.312 27.584 4.648 26.448 5.32 25.424C6.024 24.368 6.984 23.536 8.2 22.928C9.448 22.288 10.888 21.968 12.52 21.968C13.736 21.968 14.808 22.144 15.736 22.496C16.664 22.848 17.4 23.328 17.944 23.936C18.52 24.544 18.808 25.248 18.808 26.048C18.808 26.72 18.584 27.296 18.136 27.776C17.72 28.256 17.112 28.496 16.312 28.496C15.576 28.496 15 28.304 14.584 27.92C14.2 27.504 14.008 27.024 14.008 26.48C14.008 26.064 14.072 25.712 14.2 25.424C14.36 25.136 14.44 24.848 14.44 24.56C14.44 24.112 14.2 23.808 13.72 23.648C13.272 23.456 12.728 23.36 12.088 23.36C11.16 23.36 10.312 23.552 9.544 23.936C8.776 24.32 8.392 24.912 8.392 25.712C8.392 26.416 8.696 27.056 9.304 27.632C9.944 28.176 10.728 28.72 11.656 29.264C12.584 29.808 13.496 30.432 14.392 31.136C15.32 31.808 16.088 32.624 16.696 33.584C17.336 34.512 17.656 35.664 17.656 37.04C17.656 38.512 17.24 39.824 16.408 40.976C15.576 42.096 14.44 42.976 13 43.616C11.592 44.256 9.992 44.576 8.2 44.576ZM26.3706 44.576C24.9306 44.576 23.8906 44.224 23.2506 43.52C22.6106 42.816 22.2906 41.968 22.2906 40.976C22.2906 40.592 22.3226 40.16 22.3866 39.68C22.4826 39.168 22.5626 38.736 22.6266 38.384L27.6666 16.64H33.6666L28.1946 39.68C28.0986 40.096 28.0346 40.432 28.0026 40.688C27.9706 40.944 27.9546 41.12 27.9546 41.216C27.9546 41.888 28.2906 42.224 28.9626 42.224C29.6346 42.224 30.4346 41.808 31.3626 40.976C32.3226 40.144 33.3146 38.656 34.3386 36.512L35.4426 36.944C34.8346 38.48 34.0506 39.824 33.0906 40.976C32.1626 42.096 31.1226 42.976 29.9706 43.616C28.8506 44.256 27.6506 44.576 26.3706 44.576ZM23.0586 23.744V22.4H36.7866V23.744H23.0586ZM47.386 44.576C45.306 44.576 43.546 44.144 42.106 43.28C40.666 42.384 39.562 41.232 38.794 39.824C38.026 38.416 37.642 36.912 37.642 35.312C37.642 33.616 38.026 31.968 38.794 30.368C39.562 28.768 40.602 27.328 41.914 26.048C43.226 24.736 44.714 23.712 46.378 22.976C48.042 22.208 49.754 21.824 51.514 21.824C52.954 21.824 54.234 22.08 55.354 22.592C56.474 23.072 57.354 23.76 57.994 24.656C58.634 25.552 58.954 26.576 58.954 27.728C58.954 28.976 58.554 30.112 57.754 31.136C56.954 32.16 55.77 32.976 54.202 33.584C52.666 34.192 50.81 34.496 48.634 34.496C47.834 34.496 46.986 34.464 46.09 34.4C45.226 34.336 44.442 34.256 43.738 34.16C43.066 34.064 42.634 34 42.442 33.968L42.682 32.432C43.226 32.656 43.818 32.8 44.458 32.864C45.098 32.896 45.93 32.912 46.954 32.912C48.618 32.912 49.962 32.656 50.986 32.144C52.01 31.6 52.762 30.88 53.242 29.984C53.722 29.088 53.962 28.096 53.962 27.008C53.962 25.856 53.706 24.944 53.194 24.272C52.714 23.6 52.026 23.264 51.13 23.264C50.362 23.264 49.626 23.552 48.922 24.128C48.25 24.672 47.61 25.552 47.002 26.768C46.426 27.952 45.898 29.504 45.418 31.424C44.938 33.312 44.538 35.6 44.218 38.288C44.058 39.856 44.282 41.008 44.89 41.744C45.53 42.448 46.57 42.8 48.01 42.8C49.514 42.8 51.066 42.4 52.666 41.6C54.266 40.768 55.77 39.28 57.178 37.136L58.282 37.952C57.098 39.968 55.578 41.584 53.722 42.8C51.866 43.984 49.754 44.576 47.386 44.576ZM57.9561 58.064L66.2121 22.4H72.3081L63.8601 58.064H57.9561ZM54.3561 58.928V57.536H68.6121V58.928H54.3561ZM73.5081 44.576C72.0681 44.576 70.9161 44.272 70.0521 43.664C69.1881 43.056 68.5161 42.24 68.0361 41.216H67.7001L68.9001 36.56C68.8681 36.88 68.8361 37.184 68.8041 37.472C68.7721 37.728 68.7561 37.968 68.7561 38.192C68.7561 39.472 69.1081 40.576 69.8121 41.504C70.5161 42.4 71.4441 42.848 72.5961 42.848C73.6201 42.848 74.5321 42.48 75.3321 41.744C76.1321 40.976 76.8201 39.984 77.3961 38.768C77.9721 37.552 78.4521 36.24 78.8361 34.832C79.2201 33.424 79.4921 32.064 79.6521 30.752C79.8441 29.44 79.9401 28.32 79.9401 27.392C79.9401 25.984 79.7481 25.008 79.3641 24.464C78.9801 23.92 78.4041 23.648 77.6361 23.648C76.9001 23.648 76.0361 23.904 75.0441 24.416C74.0841 24.896 73.1561 25.712 72.2601 26.864C71.3641 27.984 70.6281 29.488 70.0521 31.376L71.3481 25.568H71.6841C72.3241 24.64 73.2361 23.792 74.4201 23.024C75.6041 22.224 76.9641 21.824 78.5001 21.824C79.9081 21.824 81.1881 22.176 82.3401 22.88C83.5241 23.584 84.4841 24.592 85.2201 25.904C85.9561 27.184 86.3241 28.752 86.3241 30.608C86.3241 32.4 85.9721 34.128 85.2681 35.792C84.5641 37.456 83.6041 38.96 82.3881 40.304C81.1721 41.616 79.7961 42.656 78.2601 43.424C76.7241 44.192 75.1401 44.576 73.5081 44.576ZM61.7001 23.744V22.4H71.7321V23.744H61.7001ZM91.8366 44.576C90.7806 44.576 89.8686 44.208 89.1006 43.472C88.3646 42.736 87.9966 41.84 87.9966 40.784C87.9966 39.664 88.3646 38.736 89.1006 38C89.8686 37.264 90.7806 36.896 91.8366 36.896C92.9246 36.896 93.8366 37.264 94.5726 38C95.3406 38.736 95.7246 39.664 95.7246 40.784C95.7246 41.84 95.3406 42.736 94.5726 43.472C93.8366 44.208 92.9246 44.576 91.8366 44.576ZM103.585 44L110.689 10.112H117.361L110.065 44H103.585ZM98.3046 44V42.464H116.545V44H98.3046ZM104.113 11.648V10.112H116.353V11.648H104.113ZM141.129 35.456H150.513V36.848H141.129V35.456ZM141.129 39.392H150.513V40.808H141.129V39.392ZM141.153 43.352H151.641V44.888H141.153V43.352ZM138.417 26.312H151.521V30.416H149.913V27.872H139.977V30.416H138.417V26.312ZM145.041 32.6H146.721V44.168H145.041V32.6ZM141.777 31.448H150.921V33.008H141.777V45.92H140.073V33.08L141.633 31.448H141.777ZM144.033 23.84L145.761 24.176C144.393 29.048 142.017 33.032 138.777 35.6C138.513 35.264 137.865 34.592 137.481 34.28C140.649 31.976 142.857 28.256 144.033 23.84ZM146.529 28.592L148.233 29.024C147.657 30.272 147.009 31.616 146.505 32.528L145.113 32.12C145.617 31.16 146.241 29.648 146.529 28.592ZM129.873 25.472H138.345V27.128H129.873V25.472ZM132.297 32.48H137.721V42.992H132.297V41.408H136.137V34.088H132.297V32.48ZM132.705 26.264L134.433 26.528C133.689 31.568 132.441 36.296 130.209 39.44C130.017 39.032 129.513 38.144 129.177 37.736C131.097 35.024 132.129 30.776 132.705 26.264ZM131.553 32.48H133.065V44.864H131.553V32.48ZM167.505 25.52H169.161C168.657 29.408 167.481 33.296 163.281 35.384C163.089 35 162.585 34.4 162.201 34.112C166.113 32.312 167.097 28.808 167.505 25.52ZM163.089 28.952L163.977 27.704C166.473 28.544 169.473 30.032 171.057 31.136L170.193 32.552C168.585 31.376 165.585 29.792 163.089 28.952ZM173.169 24.872H174.873C174.873 24.872 174.873 25.4 174.849 25.64C174.609 31.304 174.369 33.44 173.769 34.136C173.385 34.592 172.977 34.76 172.329 34.832C171.753 34.88 170.625 34.856 169.497 34.808C169.473 34.304 169.305 33.608 169.041 33.176C170.145 33.272 171.153 33.272 171.537 33.272C171.921 33.296 172.137 33.224 172.305 33.032C172.737 32.528 172.977 30.608 173.169 25.184V24.872ZM165.801 37.664H167.481V43.448C167.481 44.048 167.577 44.144 168.249 44.144C168.561 44.144 170.121 44.144 170.505 44.144C171.153 44.144 171.249 43.808 171.321 41.408C171.657 41.696 172.377 41.936 172.857 42.08C172.665 45.008 172.209 45.752 170.697 45.752C170.313 45.752 168.417 45.752 168.033 45.752C166.209 45.752 165.801 45.248 165.801 43.472V37.664ZM163.521 38.48L164.985 38.84C164.721 40.976 164.217 43.304 162.945 44.648L161.601 43.76C162.753 42.584 163.281 40.472 163.521 38.48ZM166.209 35.456L167.265 34.4C168.849 35.24 170.697 36.536 171.585 37.544L170.457 38.768C169.593 37.76 167.769 36.368 166.209 35.456ZM171.801 38.648L173.289 38.048C174.585 39.8 175.665 42.152 176.025 43.784L174.417 44.456C174.105 42.824 173.049 40.4 171.801 38.648ZM163.305 24.872H173.913V26.432H163.305V24.872ZM154.617 31.112H161.433V32.552H154.617V31.112ZM154.713 24.704H161.337V26.144H154.713V24.704ZM154.617 34.328H161.433V35.768H154.617V34.328ZM153.537 27.848H162.105V29.336H153.537V27.848ZM155.409 37.568H161.433V44.576H155.409V43.064H159.873V39.056H155.409V37.568ZM154.593 37.568H156.129V45.68H154.593V37.568ZM187.377 25.976H199.689V27.704H187.377V25.976ZM193.305 26.696H195.105V43.568C195.105 44.792 194.817 45.32 194.025 45.608C193.233 45.92 191.865 45.944 189.753 45.944C189.681 45.44 189.369 44.648 189.105 44.096C190.737 44.168 192.249 44.168 192.705 44.144C193.161 44.144 193.305 44 193.305 43.568V26.696ZM178.665 31.112H186.153V32.552H178.665V31.112ZM178.809 24.704H186.177V26.144H178.809V24.704ZM178.665 34.328H186.153V35.768H178.665V34.328ZM177.537 27.848H187.089V29.336H177.537V27.848ZM179.505 37.568H186.081V44.576H179.505V43.064H184.473V39.056H179.505V37.568ZM178.641 37.568H180.249V45.68H178.641V37.568ZM211.617 31.52H213.465V45.92H211.617V31.52ZM206.169 35.576V37.664H219.225V35.576H206.169ZM206.169 32.144V34.184H219.225V32.144H206.169ZM204.417 30.68H221.049V39.104H204.417V30.68ZM201.993 40.952H223.281V42.536H201.993V40.952ZM205.401 26V28.28H210.009V26H205.401ZM203.769 24.8H211.689V29.48H203.769V24.8ZM215.265 26V28.28H219.921V26H215.265ZM213.633 24.8H221.625V29.48H213.633V24.8ZM227.529 25.328H234.417V39.656H227.529V37.976H232.737V26.984H227.529V25.328ZM227.553 31.544H233.457V33.176H227.553V31.544ZM237.681 24.872H245.769V26.552H237.681V24.872ZM237.681 30.704H245.769V32.36H237.681V30.704ZM237.537 36.608H245.721V38.24H237.537V36.608ZM226.545 25.328H228.225V41.888H226.545V25.328ZM245.097 24.872H246.897V43.568C246.897 44.696 246.609 45.248 245.841 45.56C245.073 45.848 243.753 45.872 241.689 45.872C241.593 45.392 241.305 44.6 241.041 44.12C242.577 44.168 244.089 44.144 244.521 44.144C244.953 44.12 245.097 43.976 245.097 43.544V24.872ZM236.625 24.872H238.401V33.44C238.401 37.472 237.801 42.776 233.481 46.088C233.217 45.728 232.545 45.104 232.161 44.864C236.217 41.744 236.625 37.184 236.625 33.44V24.872ZM264.321 26.504H265.929V43.664H264.321V26.504ZM259.569 25.76H270.921V45.44H269.241V27.44H261.201V45.632H259.569V25.76ZM260.457 34.088H269.985V35.744H260.457V34.088ZM260.457 42.656H269.913V44.312H260.457V42.656ZM253.593 35.144H255.201V45.896H253.593V35.144ZM253.353 23.84L254.961 24.488C254.049 26.264 252.873 28.4 251.937 29.744L250.665 29.168C251.601 27.776 252.729 25.448 253.353 23.84ZM256.305 26.6L257.841 27.344C256.161 30.008 253.785 33.416 251.937 35.48L250.809 34.832C252.657 32.72 254.985 29.144 256.305 26.6ZM249.513 28.976L250.425 27.776C251.721 28.856 253.209 30.392 253.857 31.424L252.897 32.816C252.273 31.712 250.785 30.08 249.513 28.976ZM255.633 32.096L257.001 31.496C258.057 33.056 259.113 35.12 259.521 36.464L258.081 37.16C257.697 35.816 256.665 33.68 255.633 32.096ZM249.345 34.448C251.529 34.328 254.769 34.112 257.985 33.872L258.009 35.336C255.009 35.6 251.937 35.888 249.609 36.104L249.345 34.448ZM256.065 37.904L257.457 37.472C258.153 38.936 258.825 40.856 259.113 42.128L257.601 42.632C257.385 41.36 256.737 39.392 256.065 37.904ZM250.833 37.544L252.393 37.832C252.081 40.088 251.505 42.416 250.761 43.952C250.449 43.76 249.729 43.424 249.321 43.28C250.113 41.816 250.569 39.656 250.833 37.544Z" fill="#90957A"/>
<path d="M522.2 44.576C519.928 44.576 518.152 44.112 516.872 43.184C515.592 42.256 514.952 41.12 514.952 39.776C514.952 38.848 515.224 38.16 515.768 37.712C516.344 37.232 517.016 36.992 517.784 36.992C518.616 36.992 519.24 37.232 519.656 37.712C520.104 38.192 520.328 38.72 520.328 39.296C520.328 39.84 520.2 40.272 519.944 40.592C519.688 40.912 519.56 41.264 519.56 41.648C519.56 42 519.784 42.32 520.232 42.608C520.712 42.864 521.528 42.992 522.68 42.992C524.376 42.992 525.592 42.704 526.328 42.128C527.096 41.52 527.48 40.832 527.48 40.064C527.48 39.296 527.176 38.608 526.568 38C525.96 37.392 525.192 36.816 524.264 36.272C523.368 35.696 522.456 35.088 521.528 34.448C520.6 33.776 519.832 32.992 519.224 32.096C518.616 31.2 518.312 30.112 518.312 28.832C518.312 27.584 518.648 26.448 519.32 25.424C520.024 24.368 520.984 23.536 522.2 22.928C523.448 22.288 524.888 21.968 526.52 21.968C527.736 21.968 528.808 22.144 529.736 22.496C530.664 22.848 531.4 23.328 531.944 23.936C532.52 24.544 532.808 25.248 532.808 26.048C532.808 26.72 532.584 27.296 532.136 27.776C531.72 28.256 531.112 28.496 530.312 28.496C529.576 28.496 529 28.304 528.584 27.92C528.2 27.504 528.008 27.024 528.008 26.48C528.008 26.064 528.072 25.712 528.2 25.424C528.36 25.136 528.44 24.848 528.44 24.56C528.44 24.112 528.2 23.808 527.72 23.648C527.272 23.456 526.728 23.36 526.088 23.36C525.16 23.36 524.312 23.552 523.544 23.936C522.776 24.32 522.392 24.912 522.392 25.712C522.392 26.416 522.696 27.056 523.304 27.632C523.944 28.176 524.728 28.72 525.656 29.264C526.584 29.808 527.496 30.432 528.392 31.136C529.32 31.808 530.088 32.624 530.696 33.584C531.336 34.512 531.656 35.664 531.656 37.04C531.656 38.512 531.24 39.824 530.408 40.976C529.576 42.096 528.44 42.976 527 43.616C525.592 44.256 523.992 44.576 522.2 44.576ZM540.371 44.576C538.931 44.576 537.891 44.224 537.251 43.52C536.611 42.816 536.291 41.968 536.291 40.976C536.291 40.592 536.323 40.16 536.387 39.68C536.483 39.168 536.563 38.736 536.627 38.384L541.667 16.64H547.667L542.195 39.68C542.099 40.096 542.035 40.432 542.003 40.688C541.971 40.944 541.955 41.12 541.955 41.216C541.955 41.888 542.291 42.224 542.963 42.224C543.635 42.224 544.435 41.808 545.363 40.976C546.323 40.144 547.315 38.656 548.339 36.512L549.443 36.944C548.835 38.48 548.051 39.824 547.091 40.976C546.163 42.096 545.123 42.976 543.971 43.616C542.851 44.256 541.651 44.576 540.371 44.576ZM537.059 23.744V22.4H550.787V23.744H537.059ZM561.386 44.576C559.306 44.576 557.546 44.144 556.106 43.28C554.666 42.384 553.562 41.232 552.794 39.824C552.026 38.416 551.642 36.912 551.642 35.312C551.642 33.616 552.026 31.968 552.794 30.368C553.562 28.768 554.602 27.328 555.914 26.048C557.226 24.736 558.714 23.712 560.378 22.976C562.042 22.208 563.754 21.824 565.514 21.824C566.954 21.824 568.234 22.08 569.354 22.592C570.474 23.072 571.354 23.76 571.994 24.656C572.634 25.552 572.954 26.576 572.954 27.728C572.954 28.976 572.554 30.112 571.754 31.136C570.954 32.16 569.77 32.976 568.202 33.584C566.666 34.192 564.81 34.496 562.634 34.496C561.834 34.496 560.986 34.464 560.09 34.4C559.226 34.336 558.442 34.256 557.738 34.16C557.066 34.064 556.634 34 556.442 33.968L556.682 32.432C557.226 32.656 557.818 32.8 558.458 32.864C559.098 32.896 559.93 32.912 560.954 32.912C562.618 32.912 563.962 32.656 564.986 32.144C566.01 31.6 566.762 30.88 567.242 29.984C567.722 29.088 567.962 28.096 567.962 27.008C567.962 25.856 567.706 24.944 567.194 24.272C566.714 23.6 566.026 23.264 565.13 23.264C564.362 23.264 563.626 23.552 562.922 24.128C562.25 24.672 561.61 25.552 561.002 26.768C560.426 27.952 559.898 29.504 559.418 31.424C558.938 33.312 558.538 35.6 558.218 38.288C558.058 39.856 558.282 41.008 558.89 41.744C559.53 42.448 560.57 42.8 562.01 42.8C563.514 42.8 565.066 42.4 566.666 41.6C568.266 40.768 569.77 39.28 571.178 37.136L572.282 37.952C571.098 39.968 569.578 41.584 567.722 42.8C565.866 43.984 563.754 44.576 561.386 44.576ZM571.956 58.064L580.212 22.4H586.308L577.86 58.064H571.956ZM568.356 58.928V57.536H582.612V58.928H568.356ZM587.508 44.576C586.068 44.576 584.916 44.272 584.052 43.664C583.188 43.056 582.516 42.24 582.036 41.216H581.7L582.9 36.56C582.868 36.88 582.836 37.184 582.804 37.472C582.772 37.728 582.756 37.968 582.756 38.192C582.756 39.472 583.108 40.576 583.812 41.504C584.516 42.4 585.444 42.848 586.596 42.848C587.62 42.848 588.532 42.48 589.332 41.744C590.132 40.976 590.82 39.984 591.396 38.768C591.972 37.552 592.452 36.24 592.836 34.832C593.22 33.424 593.492 32.064 593.652 30.752C593.844 29.44 593.94 28.32 593.94 27.392C593.94 25.984 593.748 25.008 593.364 24.464C592.98 23.92 592.404 23.648 591.636 23.648C590.9 23.648 590.036 23.904 589.044 24.416C588.084 24.896 587.156 25.712 586.26 26.864C585.364 27.984 584.628 29.488 584.052 31.376L585.348 25.568H585.684C586.324 24.64 587.236 23.792 588.42 23.024C589.604 22.224 590.964 21.824 592.5 21.824C593.908 21.824 595.188 22.176 596.34 22.88C597.524 23.584 598.484 24.592 599.22 25.904C599.956 27.184 600.324 28.752 600.324 30.608C600.324 32.4 599.972 34.128 599.268 35.792C598.564 37.456 597.604 38.96 596.388 40.304C595.172 41.616 593.796 42.656 592.26 43.424C590.724 44.192 589.14 44.576 587.508 44.576ZM575.7 23.744V22.4H585.732V23.744H575.7ZM605.837 44.576C604.781 44.576 603.869 44.208 603.101 43.472C602.365 42.736 601.997 41.84 601.997 40.784C601.997 39.664 602.365 38.736 603.101 38C603.869 37.264 604.781 36.896 605.837 36.896C606.925 36.896 607.837 37.264 608.573 38C609.341 38.736 609.725 39.664 609.725 40.784C609.725 41.84 609.341 42.736 608.573 43.472C607.837 44.208 606.925 44.576 605.837 44.576ZM612.689 44L613.601 40.112L623.873 31.952C626.017 30.288 627.697 28.688 628.913 27.152C630.129 25.584 630.993 24.048 631.505 22.544C632.017 21.008 632.273 19.488 632.273 17.984C632.273 15.808 631.841 14.208 630.977 13.184C630.145 12.16 628.961 11.648 627.425 11.648C626.209 11.648 625.105 11.92 624.113 12.464C623.121 13.008 622.337 13.632 621.761 14.336C621.185 15.008 620.897 15.584 620.897 16.064C620.897 16.512 621.121 16.832 621.569 17.024C622.017 17.184 622.529 17.344 623.105 17.504C623.713 17.664 624.241 17.952 624.689 18.368C625.137 18.752 625.361 19.376 625.361 20.24C625.361 21.232 625.041 22.016 624.401 22.592C623.761 23.136 623.009 23.408 622.145 23.408C621.665 23.408 621.105 23.28 620.465 23.024C619.857 22.768 619.297 22.32 618.785 21.68C618.305 21.04 618.065 20.144 618.065 18.992C618.065 17.584 618.465 16.208 619.265 14.864C620.065 13.488 621.265 12.352 622.865 11.456C624.497 10.56 626.529 10.112 628.961 10.112C630.977 10.112 632.785 10.448 634.385 11.12C636.017 11.792 637.297 12.752 638.225 14C639.153 15.216 639.617 16.672 639.617 18.368C639.617 20 639.057 21.664 637.937 23.36C636.817 25.056 634.817 26.896 631.937 28.88L618.881 38.192V38.384H632.081C632.689 38.384 633.185 38.288 633.569 38.096C633.953 37.904 634.289 37.504 634.577 36.896C634.865 36.256 635.153 35.296 635.441 34.016H636.881L634.337 44H612.689ZM658.1 25.856H672.596V27.368H658.1V25.856ZM657.428 39.872H672.908V41.408H657.428V39.872ZM664.412 23.84H666.164V29.816H664.412V23.84ZM661.652 32.984V34.52H669.02V32.984H661.652ZM661.652 35.72V37.256H669.02V35.72H661.652ZM661.652 30.32V31.808H669.02V30.32H661.652ZM659.996 29.072H670.748V38.504H659.996V29.072ZM666.596 42.632L667.844 41.72C669.74 42.752 671.828 44.048 673.076 45.032L671.42 45.944C670.316 44.984 668.396 43.664 666.596 42.632ZM662.18 41.792L663.86 42.368C662.372 43.784 660.044 45.128 658.076 45.968C657.788 45.632 657.116 44.984 656.732 44.696C658.724 44 660.884 42.92 662.18 41.792ZM651.092 29.72H658.172V31.424H651.092V29.72ZM653.9 24.152H655.604V39.8H653.9V24.152ZM650.636 40.304C652.58 39.584 655.508 38.336 658.34 37.136L658.748 38.816C656.204 39.992 653.444 41.192 651.332 42.104L650.636 40.304ZM684.908 23.864H686.708V26.816H684.908V23.864ZM675.644 25.784H696.044V30.056H694.34V27.368H677.3V30.056H675.644V25.784ZM684.092 28.136L685.244 29.312C683.66 29.96 681.5 30.512 679.676 30.848C679.604 30.536 679.388 30.032 679.22 29.72C680.924 29.288 682.94 28.688 684.092 28.136ZM678.572 29.36L680.204 29.72V36.056H678.572V29.36ZM678.572 35.216H691.556V30.68H686.54V29.36H693.212V36.56H678.572V35.216ZM679.148 32.288H684.812V33.584H679.148V32.288ZM686.9 32.288H692.396V33.584H686.9V32.288ZM681.884 35.84L683.492 36.32C681.836 38.936 678.86 41.072 675.956 42.392C675.74 42.032 675.212 41.288 674.876 40.952C677.66 39.872 680.444 38.048 681.884 35.84ZM680.852 38.12H694.172V39.584H679.364L680.852 38.12ZM693.596 38.12H695.372C695.372 38.12 695.348 38.6 695.324 38.84C695.06 42.992 694.772 44.624 694.196 45.248C693.764 45.68 693.332 45.824 692.66 45.872C692.06 45.92 690.908 45.896 689.708 45.848C689.684 45.368 689.492 44.696 689.204 44.264C690.38 44.36 691.484 44.384 691.868 44.36C692.3 44.384 692.516 44.36 692.708 44.168C693.116 43.736 693.356 42.248 693.596 38.36V38.12ZM678.884 40.544L680.324 41C679.964 42.704 679.292 44.552 677.972 45.632L676.652 44.816C677.828 43.856 678.524 42.128 678.884 40.544ZM681.74 40.952L683.156 40.784C683.66 42.128 684.044 43.856 684.044 44.96L682.556 45.176C682.58 44.072 682.244 42.32 681.74 40.952ZM685.124 40.832L686.444 40.472C687.188 41.6 687.86 43.136 688.052 44.12L686.684 44.552C686.492 43.544 685.844 42.008 685.124 40.832ZM688.46 40.712L689.66 40.136C690.5 40.904 691.388 41.984 691.772 42.776L690.5 43.4C690.164 42.632 689.276 41.48 688.46 40.712ZM708.596 25.976H720.908V27.704H708.596V25.976ZM714.524 26.696H716.324V43.568C716.324 44.792 716.036 45.32 715.244 45.608C714.452 45.92 713.084 45.944 710.972 45.944C710.9 45.44 710.588 44.648 710.324 44.096C711.956 44.168 713.468 44.168 713.924 44.144C714.38 44.144 714.524 44 714.524 43.568V26.696ZM699.884 31.112H707.372V32.552H699.884V31.112ZM700.028 24.704H707.396V26.144H700.028V24.704ZM699.884 34.328H707.372V35.768H699.884V34.328ZM698.756 27.848H708.308V29.336H698.756V27.848ZM700.724 37.568H707.3V44.576H700.724V43.064H705.692V39.056H700.724V37.568ZM699.86 37.568H701.468V45.68H699.86V37.568ZM731.612 25.928H744.284V27.296H731.612V25.928ZM731.06 31.664H744.788V33.032H731.06V31.664ZM730.988 40.568H744.884V41.96H730.988V40.568ZM732.236 28.736H743.876V30.08H732.236V28.736ZM734.54 23.864H736.148V32.216H734.54V23.864ZM739.724 23.864H741.332V32.216H739.724V23.864ZM737.084 32.264H738.692V41H737.084V32.264ZM741.788 34.424H743.444V44.048C743.444 44.936 743.252 45.392 742.628 45.656C741.956 45.92 740.852 45.896 739.124 45.896C739.052 45.488 738.836 44.864 738.62 44.432C739.868 44.48 741.044 44.48 741.356 44.456C741.692 44.432 741.788 44.36 741.788 44.048V34.424ZM732.524 34.424H742.508V35.792H734.156V45.944H732.524V34.424ZM733.364 37.52H742.46V38.768H733.364V37.52ZM725.012 40.376L726.644 40.76C726.068 42.728 725.06 44.672 723.956 45.944C723.644 45.704 722.972 45.224 722.588 44.984C723.668 43.832 724.556 42.128 725.012 40.376ZM728.036 40.976L729.38 40.352C730.172 41.528 731.036 43.088 731.396 44.072L729.956 44.768C729.596 43.76 728.78 42.152 728.036 40.976ZM725.396 30.752V33.848H728.996V30.752H725.396ZM725.396 35.24V38.384H728.996V35.24H725.396ZM725.396 26.264V29.336H728.996V26.264H725.396ZM723.812 24.752H730.604V39.872H723.812V24.752ZM748.148 25.616L748.94 24.392C750.596 24.824 752.828 25.64 753.98 26.24L753.188 27.632C752.06 27.008 749.828 26.144 748.148 25.616ZM746.948 30.68C748.676 30.272 751.22 29.552 753.716 28.856L753.908 30.272C751.724 30.968 749.468 31.712 747.644 32.264L746.948 30.68ZM757.244 25.616H766.892V26.984H756.188L757.244 25.616ZM766.412 25.616H766.7L767.012 25.544L768.212 25.904C767.54 27.152 766.652 28.496 765.788 29.336L764.348 28.832C765.116 28.088 765.932 26.888 766.412 25.88V25.616ZM760.22 26.096H761.876C761.372 29.504 759.836 31.376 754.94 32.36C754.772 31.976 754.388 31.376 754.076 31.064C758.516 30.32 759.812 28.832 760.22 26.096ZM761.804 26.528C762.284 28.568 763.46 30.536 768.788 31.304C768.452 31.664 768.044 32.312 767.852 32.768C762.164 31.784 760.964 29.192 760.34 26.672L761.804 26.528ZM757.628 23.84L759.26 24.104C758.444 25.856 757.22 27.632 755.348 29.072C755.036 28.736 754.412 28.352 753.98 28.16C755.78 26.936 757.004 25.28 757.628 23.84ZM751.916 36.392V38.024H764.012V36.392H751.916ZM751.916 39.2V40.88H764.012V39.2H751.916ZM751.916 33.584V35.216H764.012V33.584H751.916ZM750.164 32.384H765.812V42.08H750.164V32.384ZM759.836 43.304L761.3 42.392C763.94 43.208 766.844 44.264 768.572 45.08L766.58 45.992C765.068 45.2 762.452 44.168 759.836 43.304ZM754.196 42.344L755.828 43.088C753.884 44.24 750.836 45.344 748.436 46.016C748.148 45.656 747.524 44.96 747.116 44.648C749.588 44.12 752.468 43.28 754.196 42.344ZM774.836 23.936H776.516V45.896H774.836V23.936ZM770.972 31.904H780.452V33.608H770.972V31.904ZM774.572 32.792L775.652 33.272C774.812 36.536 773.108 40.688 771.5 42.872C771.308 42.344 770.876 41.576 770.588 41.096C772.124 39.248 773.804 35.6 774.572 32.792ZM776.468 33.92C777.14 34.64 779.588 37.904 780.14 38.696L778.94 40.136C778.34 38.84 776.372 35.696 775.58 34.664L776.468 33.92ZM771.14 25.712L772.46 25.376C773.132 27.056 773.684 29.24 773.852 30.68L772.436 31.064C772.316 29.624 771.764 27.392 771.14 25.712ZM778.892 25.28L780.476 25.688C779.852 27.512 779.108 29.768 778.46 31.112L777.308 30.752C777.836 29.312 778.556 26.912 778.892 25.28ZM788.204 23.864H789.908V45.92H788.204V23.864ZM780.404 39.128L792.74 36.92L793.028 38.576L780.692 40.808L780.404 39.128ZM782.204 26.792L783.14 25.568C784.532 26.384 786.188 27.608 786.98 28.496L786.02 29.888C785.252 28.952 783.596 27.656 782.204 26.792ZM780.98 32.84L781.82 31.568C783.26 32.312 785.036 33.44 785.9 34.304L784.988 35.72C784.148 34.856 782.42 33.632 780.98 32.84Z" fill="#EDEDED"/>
<path d="M1043.2 44.576C1040.93 44.576 1039.15 44.112 1037.87 43.184C1036.59 42.256 1035.95 41.12 1035.95 39.776C1035.95 38.848 1036.22 38.16 1036.77 37.712C1037.34 37.232 1038.02 36.992 1038.78 36.992C1039.62 36.992 1040.24 37.232 1040.66 37.712C1041.1 38.192 1041.33 38.72 1041.33 39.296C1041.33 39.84 1041.2 40.272 1040.94 40.592C1040.69 40.912 1040.56 41.264 1040.56 41.648C1040.56 42 1040.78 42.32 1041.23 42.608C1041.71 42.864 1042.53 42.992 1043.68 42.992C1045.38 42.992 1046.59 42.704 1047.33 42.128C1048.1 41.52 1048.48 40.832 1048.48 40.064C1048.48 39.296 1048.18 38.608 1047.57 38C1046.96 37.392 1046.19 36.816 1045.26 36.272C1044.37 35.696 1043.46 35.088 1042.53 34.448C1041.6 33.776 1040.83 32.992 1040.22 32.096C1039.62 31.2 1039.31 30.112 1039.31 28.832C1039.31 27.584 1039.65 26.448 1040.32 25.424C1041.02 24.368 1041.98 23.536 1043.2 22.928C1044.45 22.288 1045.89 21.968 1047.52 21.968C1048.74 21.968 1049.81 22.144 1050.74 22.496C1051.66 22.848 1052.4 23.328 1052.94 23.936C1053.52 24.544 1053.81 25.248 1053.81 26.048C1053.81 26.72 1053.58 27.296 1053.14 27.776C1052.72 28.256 1052.11 28.496 1051.31 28.496C1050.58 28.496 1050 28.304 1049.58 27.92C1049.2 27.504 1049.01 27.024 1049.01 26.48C1049.01 26.064 1049.07 25.712 1049.2 25.424C1049.36 25.136 1049.44 24.848 1049.44 24.56C1049.44 24.112 1049.2 23.808 1048.72 23.648C1048.27 23.456 1047.73 23.36 1047.09 23.36C1046.16 23.36 1045.31 23.552 1044.54 23.936C1043.78 24.32 1043.39 24.912 1043.39 25.712C1043.39 26.416 1043.7 27.056 1044.3 27.632C1044.94 28.176 1045.73 28.72 1046.66 29.264C1047.58 29.808 1048.5 30.432 1049.39 31.136C1050.32 31.808 1051.09 32.624 1051.7 33.584C1052.34 34.512 1052.66 35.664 1052.66 37.04C1052.66 38.512 1052.24 39.824 1051.41 40.976C1050.58 42.096 1049.44 42.976 1048 43.616C1046.59 44.256 1044.99 44.576 1043.2 44.576ZM1061.37 44.576C1059.93 44.576 1058.89 44.224 1058.25 43.52C1057.61 42.816 1057.29 41.968 1057.29 40.976C1057.29 40.592 1057.32 40.16 1057.39 39.68C1057.48 39.168 1057.56 38.736 1057.63 38.384L1062.67 16.64H1068.67L1063.19 39.68C1063.1 40.096 1063.03 40.432 1063 40.688C1062.97 40.944 1062.95 41.12 1062.95 41.216C1062.95 41.888 1063.29 42.224 1063.96 42.224C1064.63 42.224 1065.43 41.808 1066.36 40.976C1067.32 40.144 1068.31 38.656 1069.34 36.512L1070.44 36.944C1069.83 38.48 1069.05 39.824 1068.09 40.976C1067.16 42.096 1066.12 42.976 1064.97 43.616C1063.85 44.256 1062.65 44.576 1061.37 44.576ZM1058.06 23.744V22.4H1071.79V23.744H1058.06ZM1082.39 44.576C1080.31 44.576 1078.55 44.144 1077.11 43.28C1075.67 42.384 1074.56 41.232 1073.79 39.824C1073.03 38.416 1072.64 36.912 1072.64 35.312C1072.64 33.616 1073.03 31.968 1073.79 30.368C1074.56 28.768 1075.6 27.328 1076.91 26.048C1078.23 24.736 1079.71 23.712 1081.38 22.976C1083.04 22.208 1084.75 21.824 1086.51 21.824C1087.95 21.824 1089.23 22.08 1090.35 22.592C1091.47 23.072 1092.35 23.76 1092.99 24.656C1093.63 25.552 1093.95 26.576 1093.95 27.728C1093.95 28.976 1093.55 30.112 1092.75 31.136C1091.95 32.16 1090.77 32.976 1089.2 33.584C1087.67 34.192 1085.81 34.496 1083.63 34.496C1082.83 34.496 1081.99 34.464 1081.09 34.4C1080.23 34.336 1079.44 34.256 1078.74 34.16C1078.07 34.064 1077.63 34 1077.44 33.968L1077.68 32.432C1078.23 32.656 1078.82 32.8 1079.46 32.864C1080.1 32.896 1080.93 32.912 1081.95 32.912C1083.62 32.912 1084.96 32.656 1085.99 32.144C1087.01 31.6 1087.76 30.88 1088.24 29.984C1088.72 29.088 1088.96 28.096 1088.96 27.008C1088.96 25.856 1088.71 24.944 1088.19 24.272C1087.71 23.6 1087.03 23.264 1086.13 23.264C1085.36 23.264 1084.63 23.552 1083.92 24.128C1083.25 24.672 1082.61 25.552 1082 26.768C1081.43 27.952 1080.9 29.504 1080.42 31.424C1079.94 33.312 1079.54 35.6 1079.22 38.288C1079.06 39.856 1079.28 41.008 1079.89 41.744C1080.53 42.448 1081.57 42.8 1083.01 42.8C1084.51 42.8 1086.07 42.4 1087.67 41.6C1089.27 40.768 1090.77 39.28 1092.18 37.136L1093.28 37.952C1092.1 39.968 1090.58 41.584 1088.72 42.8C1086.87 43.984 1084.75 44.576 1082.39 44.576ZM1092.96 58.064L1101.21 22.4H1107.31L1098.86 58.064H1092.96ZM1089.36 58.928V57.536H1103.61V58.928H1089.36ZM1108.51 44.576C1107.07 44.576 1105.92 44.272 1105.05 43.664C1104.19 43.056 1103.52 42.24 1103.04 41.216H1102.7L1103.9 36.56C1103.87 36.88 1103.84 37.184 1103.8 37.472C1103.77 37.728 1103.76 37.968 1103.76 38.192C1103.76 39.472 1104.11 40.576 1104.81 41.504C1105.52 42.4 1106.44 42.848 1107.6 42.848C1108.62 42.848 1109.53 42.48 1110.33 41.744C1111.13 40.976 1111.82 39.984 1112.4 38.768C1112.97 37.552 1113.45 36.24 1113.84 34.832C1114.22 33.424 1114.49 32.064 1114.65 30.752C1114.84 29.44 1114.94 28.32 1114.94 27.392C1114.94 25.984 1114.75 25.008 1114.36 24.464C1113.98 23.92 1113.4 23.648 1112.64 23.648C1111.9 23.648 1111.04 23.904 1110.04 24.416C1109.08 24.896 1108.16 25.712 1107.26 26.864C1106.36 27.984 1105.63 29.488 1105.05 31.376L1106.35 25.568H1106.68C1107.32 24.64 1108.24 23.792 1109.42 23.024C1110.6 22.224 1111.96 21.824 1113.5 21.824C1114.91 21.824 1116.19 22.176 1117.34 22.88C1118.52 23.584 1119.48 24.592 1120.22 25.904C1120.96 27.184 1121.32 28.752 1121.32 30.608C1121.32 32.4 1120.97 34.128 1120.27 35.792C1119.56 37.456 1118.6 38.96 1117.39 40.304C1116.17 41.616 1114.8 42.656 1113.26 43.424C1111.72 44.192 1110.14 44.576 1108.51 44.576ZM1096.7 23.744V22.4H1106.73V23.744H1096.7ZM1126.84 44.576C1125.78 44.576 1124.87 44.208 1124.1 43.472C1123.36 42.736 1123 41.84 1123 40.784C1123 39.664 1123.36 38.736 1124.1 38C1124.87 37.264 1125.78 36.896 1126.84 36.896C1127.92 36.896 1128.84 37.264 1129.57 38C1130.34 38.736 1130.72 39.664 1130.72 40.784C1130.72 41.84 1130.34 42.736 1129.57 43.472C1128.84 44.208 1127.92 44.576 1126.84 44.576ZM1143.86 44.624C1141.75 44.624 1140.02 44.336 1138.68 43.76C1137.34 43.184 1136.34 42.432 1135.7 41.504C1135.1 40.576 1134.79 39.6 1134.79 38.576C1134.79 37.552 1135.05 36.672 1135.56 35.936C1136.1 35.2 1136.9 34.832 1137.96 34.832C1138.79 34.832 1139.48 35.088 1140.02 35.6C1140.57 36.08 1140.84 36.72 1140.84 37.52C1140.84 38.128 1140.68 38.608 1140.36 38.96C1140.07 39.28 1139.74 39.536 1139.35 39.728C1138.97 39.92 1138.62 40.096 1138.3 40.256C1138.01 40.416 1137.86 40.656 1137.86 40.976C1137.86 41.392 1138.14 41.776 1138.68 42.128C1139.26 42.48 1139.96 42.768 1140.79 42.992C1141.62 43.184 1142.46 43.28 1143.29 43.28C1144.5 43.28 1145.58 43.04 1146.5 42.56C1147.46 42.048 1148.28 41.36 1148.95 40.496C1149.62 39.6 1150.12 38.528 1150.44 37.28C1150.79 36.032 1150.97 34.656 1150.97 33.152C1150.97 30.848 1150.52 29.2 1149.62 28.208C1148.76 27.216 1147.38 26.72 1145.5 26.72C1145.08 26.72 1144.74 26.768 1144.49 26.864C1144.26 26.928 1144.06 26.992 1143.86 27.056C1143.67 27.12 1143.42 27.152 1143.1 27.152C1142.55 27.152 1142.17 27.04 1141.94 26.816C1141.72 26.592 1141.61 26.336 1141.61 26.048C1141.61 25.664 1141.74 25.376 1141.99 25.184C1142.28 24.96 1142.58 24.848 1142.9 24.848C1143.16 24.848 1143.54 24.896 1144.06 24.992C1144.57 25.088 1145.11 25.136 1145.69 25.136C1146.97 25.136 1148.07 24.816 1149 24.176C1149.96 23.504 1150.76 22.672 1151.4 21.68C1152.04 20.688 1152.5 19.632 1152.79 18.512C1153.11 17.36 1153.27 16.304 1153.27 15.344C1153.27 13.872 1152.9 12.816 1152.17 12.176C1151.46 11.536 1150.42 11.216 1149.05 11.216C1147.86 11.216 1146.9 11.408 1146.17 11.792C1145.43 12.176 1145.06 12.672 1145.06 13.28C1145.06 13.664 1145.19 13.968 1145.45 14.192C1145.7 14.416 1145.96 14.656 1146.22 14.912C1146.47 15.168 1146.6 15.568 1146.6 16.112C1146.6 16.848 1146.33 17.488 1145.78 18.032C1145.27 18.544 1144.6 18.8 1143.77 18.8C1143.1 18.8 1142.47 18.576 1141.9 18.128C1141.32 17.68 1141.03 16.96 1141.03 15.968C1141.03 14.816 1141.43 13.792 1142.23 12.896C1143.06 11.968 1144.2 11.232 1145.64 10.688C1147.08 10.144 1148.68 9.872 1150.44 9.872C1152.46 9.872 1154.14 10.192 1155.48 10.832C1156.86 11.472 1157.88 12.32 1158.55 13.376C1159.22 14.432 1159.56 15.552 1159.56 16.736C1159.56 18.592 1158.73 20.336 1157.06 21.968C1155.4 23.568 1152.97 24.816 1149.77 25.712V25.952C1151.21 25.952 1152.57 26.304 1153.85 27.008C1155.16 27.712 1156.23 28.672 1157.06 29.888C1157.9 31.104 1158.31 32.496 1158.31 34.064C1158.31 35.44 1157.96 36.768 1157.26 38.048C1156.55 39.296 1155.54 40.416 1154.23 41.408C1152.95 42.4 1151.43 43.184 1149.67 43.76C1147.91 44.336 1145.98 44.624 1143.86 44.624ZM1181.44 30.824H1194.5V32.456H1181.44V30.824ZM1177.34 35.24H1198.62V36.944H1177.34V35.24ZM1183.65 36.416H1185.57C1185.06 41.096 1183.72 44.336 1177.86 45.968C1177.67 45.512 1177.19 44.792 1176.81 44.432C1182.21 43.088 1183.24 40.328 1183.65 36.416ZM1189.72 36.272H1191.52V43.016C1191.52 43.736 1191.69 43.856 1192.7 43.856C1193.18 43.856 1195.46 43.856 1196.08 43.856C1196.99 43.856 1197.16 43.424 1197.23 40.664C1197.62 40.952 1198.38 41.24 1198.86 41.384C1198.67 44.672 1198.14 45.512 1196.22 45.512C1195.74 45.512 1192.98 45.512 1192.5 45.512C1190.3 45.512 1189.72 44.96 1189.72 43.04V36.272ZM1186.98 23.864H1188.88V27.68H1186.98V23.864ZM1177.89 26.432H1198.07V31.52H1196.18V28.136H1179.71V31.52H1177.89V26.432ZM1204.07 32.84H1210.05V34.52H1204.07V32.84ZM1209.33 32.84H1211.08C1211.08 32.84 1211.08 33.368 1211.08 33.608C1210.96 39.032 1210.82 41.048 1210.31 41.72C1209.93 42.152 1209.54 42.32 1208.87 42.392C1208.25 42.464 1207.17 42.44 1205.99 42.392C1205.94 41.864 1205.75 41.168 1205.49 40.712C1206.57 40.808 1207.62 40.808 1208.03 40.808C1208.37 40.808 1208.61 40.784 1208.78 40.568C1209.14 40.136 1209.26 38.336 1209.33 33.152V32.84ZM1216.1 25.064L1217.18 23.936C1218.66 24.704 1220.56 25.856 1221.5 26.696L1220.37 27.92C1219.46 27.08 1217.61 25.856 1216.1 25.064ZM1219.53 31.568L1221.33 32C1219.29 38.264 1215.71 42.896 1210.79 45.8C1210.53 45.44 1209.86 44.696 1209.47 44.336C1214.34 41.744 1217.73 37.352 1219.53 31.568ZM1204.22 27.92H1222.79V29.696H1204.22V27.92ZM1203.06 27.92H1204.94V34.688C1204.94 38.096 1204.55 42.944 1202.37 46.088C1202.06 45.728 1201.29 45.104 1200.86 44.888C1202.85 41.936 1203.06 37.808 1203.06 34.664V27.92ZM1213.02 23.888H1214.9C1214.85 34.928 1217.2 43.928 1220.32 43.928C1220.99 43.928 1221.3 42.68 1221.45 39.488C1221.86 39.896 1222.53 40.304 1223.01 40.472C1222.67 44.576 1222 45.752 1220.18 45.752C1215.28 45.752 1213.12 35.384 1213.02 23.888ZM1234.74 25.976H1247.06V27.704H1234.74V25.976ZM1240.67 26.696H1242.47V43.568C1242.47 44.792 1242.18 45.32 1241.39 45.608C1240.6 45.92 1239.23 45.944 1237.12 45.944C1237.05 45.44 1236.74 44.648 1236.47 44.096C1238.1 44.168 1239.62 44.168 1240.07 44.144C1240.53 44.144 1240.67 44 1240.67 43.568V26.696ZM1226.03 31.112H1233.52V32.552H1226.03V31.112ZM1226.18 24.704H1233.54V26.144H1226.18V24.704ZM1226.03 34.328H1233.52V35.768H1226.03V34.328ZM1224.9 27.848H1234.46V29.336H1224.9V27.848ZM1226.87 37.568H1233.45V44.576H1226.87V43.064H1231.84V39.056H1226.87V37.568ZM1226.01 37.568H1227.62V45.68H1226.01V37.568ZM1258.98 31.52H1260.83V45.92H1258.98V31.52ZM1253.54 35.576V37.664H1266.59V35.576H1253.54ZM1253.54 32.144V34.184H1266.59V32.144H1253.54ZM1251.78 30.68H1268.42V39.104H1251.78V30.68ZM1249.36 40.952H1270.65V42.536H1249.36V40.952ZM1252.77 26V28.28H1257.38V26H1252.77ZM1251.14 24.8H1259.06V29.48H1251.14V24.8ZM1262.63 26V28.28H1267.29V26H1262.63ZM1261 24.8H1268.99V29.48H1261V24.8Z" fill="#EDEDED"/>
<line x1="310" y1="36.5" x2="478" y2="36.5" stroke="#EDEDED"/>
<line x1="831" y1="36.5" x2="999" y2="36.5" stroke="#EDEDED"/>
</svg>
