<svg width="1243" height="58" viewBox="0 0 1243 58" fill="none" xmlns="http://www.w3.org/2000/svg">
<path d="M7.9 43.552C5.72267 43.552 4.02067 43.1073 2.794 42.218C1.56733 41.3287 0.954 40.24 0.954 38.952C0.954 38.0627 1.21467 37.4033 1.736 36.974C2.288 36.514 2.932 36.284 3.668 36.284C4.46533 36.284 5.06333 36.514 5.462 36.974C5.89133 37.434 6.106 37.94 6.106 38.492C6.106 39.0133 5.98333 39.4273 5.738 39.734C5.49267 40.0407 5.37 40.378 5.37 40.746C5.37 41.0833 5.58467 41.39 6.014 41.666C6.474 41.9113 7.256 42.034 8.36 42.034C9.98533 42.034 11.1507 41.758 11.856 41.206C12.592 40.6233 12.96 39.964 12.96 39.228C12.96 38.492 12.6687 37.8327 12.086 37.25C11.5033 36.6673 10.7673 36.1153 9.878 35.594C9.01933 35.042 8.14533 34.4593 7.256 33.846C6.36667 33.202 5.63067 32.4507 5.048 31.592C4.46533 30.7333 4.174 29.6907 4.174 28.464C4.174 27.268 4.496 26.1793 5.14 25.198C5.81467 24.186 6.73467 23.3887 7.9 22.806C9.096 22.1927 10.476 21.886 12.04 21.886C13.2053 21.886 14.2327 22.0547 15.122 22.392C16.0113 22.7293 16.7167 23.1893 17.238 23.772C17.79 24.3547 18.066 25.0293 18.066 25.796C18.066 26.44 17.8513 26.992 17.422 27.452C17.0233 27.912 16.4407 28.142 15.674 28.142C14.9687 28.142 14.4167 27.958 14.018 27.59C13.65 27.1913 13.466 26.7313 13.466 26.21C13.466 25.8113 13.5273 25.474 13.65 25.198C13.8033 24.922 13.88 24.646 13.88 24.37C13.88 23.9407 13.65 23.6493 13.19 23.496C12.7607 23.312 12.2393 23.22 11.626 23.22C10.7367 23.22 9.924 23.404 9.188 23.772C8.452 24.14 8.084 24.7073 8.084 25.474C8.084 26.1487 8.37533 26.762 8.958 27.314C9.57133 27.8353 10.3227 28.3567 11.212 28.878C12.1013 29.3993 12.9753 29.9973 13.834 30.672C14.7233 31.316 15.4593 32.098 16.042 33.018C16.6553 33.9073 16.962 35.0113 16.962 36.33C16.962 37.7407 16.5633 38.998 15.766 40.102C14.9687 41.1753 13.88 42.0187 12.5 42.632C11.1507 43.2453 9.61733 43.552 7.9 43.552ZM25.3135 43.552C23.9335 43.552 22.9368 43.2147 22.3235 42.54C21.7102 41.8653 21.4035 41.0527 21.4035 40.102C21.4035 39.734 21.4342 39.32 21.4955 38.86C21.5875 38.3693 21.6642 37.9553 21.7255 37.618L26.5555 16.78H32.3055L27.0615 38.86C26.9695 39.2587 26.9082 39.5807 26.8775 39.826C26.8468 40.0713 26.8315 40.24 26.8315 40.332C26.8315 40.976 27.1535 41.298 27.7975 41.298C28.4415 41.298 29.2082 40.8993 30.0975 40.102C31.0175 39.3047 31.9682 37.8787 32.9495 35.824L34.0075 36.238C33.4248 37.71 32.6735 38.998 31.7535 40.102C30.8642 41.1753 29.8675 42.0187 28.7635 42.632C27.6902 43.2453 26.5402 43.552 25.3135 43.552ZM22.1395 23.588V22.3H35.2955V23.588H22.1395ZM45.4533 43.552C43.4599 43.552 41.7733 43.138 40.3933 42.31C39.0133 41.4513 37.9553 40.3473 37.2193 38.998C36.4833 37.6487 36.1153 36.2073 36.1153 34.674C36.1153 33.0487 36.4833 31.4693 37.2193 29.936C37.9553 28.4027 38.9519 27.0227 40.2093 25.796C41.4666 24.5387 42.8926 23.5573 44.4873 22.852C46.0819 22.116 47.7226 21.748 49.4093 21.748C50.7893 21.748 52.0159 21.9933 53.0893 22.484C54.1626 22.944 55.0059 23.6033 55.6193 24.462C56.2326 25.3207 56.5393 26.302 56.5393 27.406C56.5393 28.602 56.1559 29.6907 55.3893 30.672C54.6226 31.6533 53.4879 32.4353 51.9853 33.018C50.5133 33.6007 48.7346 33.892 46.6493 33.892C45.8826 33.892 45.0699 33.8613 44.2113 33.8C43.3833 33.7387 42.6319 33.662 41.9573 33.57C41.3133 33.478 40.8993 33.4167 40.7153 33.386L40.9453 31.914C41.4666 32.1287 42.0339 32.2667 42.6473 32.328C43.2606 32.3587 44.0579 32.374 45.0393 32.374C46.6339 32.374 47.9219 32.1287 48.9033 31.638C49.8846 31.1167 50.6053 30.4267 51.0653 29.568C51.5253 28.7093 51.7553 27.7587 51.7553 26.716C51.7553 25.612 51.5099 24.738 51.0193 24.094C50.5593 23.45 49.8999 23.128 49.0413 23.128C48.3053 23.128 47.5999 23.404 46.9252 23.956C46.2813 24.4773 45.6679 25.3207 45.0853 26.486C44.5333 27.6207 44.0273 29.108 43.5673 30.948C43.1073 32.7573 42.7239 34.95 42.4173 37.526C42.2639 39.0287 42.4786 40.1327 43.0613 40.838C43.6746 41.5127 44.6713 41.85 46.0513 41.85C47.4926 41.85 48.9799 41.4667 50.5133 40.7C52.0466 39.9027 53.4879 38.4767 54.8373 36.422L55.8953 37.204C54.7606 39.136 53.3039 40.6847 51.5253 41.85C49.7466 42.9847 47.7226 43.552 45.4533 43.552ZM55.583 56.478L63.495 22.3H69.337L61.241 56.478H55.583ZM52.133 57.306V55.972H65.795V57.306H52.133ZM70.487 43.552C69.107 43.552 68.003 43.2607 67.175 42.678C66.347 42.0953 65.703 41.3133 65.243 40.332H64.921L66.071 35.87C66.0403 36.1767 66.0096 36.468 65.979 36.744C65.9483 36.9893 65.933 37.2193 65.933 37.434C65.933 38.6607 66.2703 39.7187 66.945 40.608C67.6196 41.4667 68.509 41.896 69.613 41.896C70.5943 41.896 71.4683 41.5433 72.235 40.838C73.0016 40.102 73.661 39.1513 74.213 37.986C74.765 36.8207 75.225 35.5633 75.593 34.214C75.961 32.8647 76.2216 31.5613 76.375 30.304C76.559 29.0467 76.651 27.9733 76.651 27.084C76.651 25.7347 76.467 24.7993 76.099 24.278C75.731 23.7567 75.179 23.496 74.443 23.496C73.7376 23.496 72.9096 23.7413 71.959 24.232C71.039 24.692 70.1496 25.474 69.291 26.578C68.4323 27.6513 67.727 29.0927 67.175 30.902L68.417 25.336H68.739C69.3523 24.4467 70.2263 23.634 71.361 22.898C72.4956 22.1313 73.799 21.748 75.271 21.748C76.6203 21.748 77.847 22.0853 78.951 22.76C80.0856 23.4347 81.0056 24.4007 81.711 25.658C82.4163 26.8847 82.769 28.3873 82.769 30.166C82.769 31.8833 82.4316 33.5393 81.757 35.134C81.0823 36.7287 80.1623 38.17 78.997 39.458C77.8316 40.7153 76.513 41.712 75.041 42.448C73.569 43.184 72.051 43.552 70.487 43.552ZM59.171 23.588V22.3H68.785V23.588H59.171ZM88.0518 43.552C87.0398 43.552 86.1658 43.1993 85.4298 42.494C84.7244 41.7887 84.3718 40.93 84.3718 39.918C84.3718 38.8447 84.7244 37.9553 85.4298 37.25C86.1658 36.5447 87.0398 36.192 88.0518 36.192C89.0944 36.192 89.9684 36.5447 90.6738 37.25C91.4098 37.9553 91.7778 38.8447 91.7778 39.918C91.7778 40.93 91.4098 41.7887 90.6738 42.494C89.9684 43.1993 89.0944 43.552 88.0518 43.552ZM99.3103 43L106.118 10.524H112.512L105.52 43H99.3103ZM94.2503 43V41.528H111.73V43H94.2503ZM99.8163 11.996V10.524H111.546V11.996H99.8163ZM133.118 36.592H140.156V37.636H133.118V36.592ZM133.118 39.544H140.156V40.606H133.118V39.544ZM133.136 42.514H141.002V43.666H133.136V42.514ZM131.084 29.734H140.912V32.812H139.706V30.904H132.254V32.812H131.084V29.734ZM136.052 34.45H137.312V43.126H136.052V34.45ZM133.604 33.586H140.462V34.756H133.604V44.44H132.326V34.81L133.496 33.586H133.604ZM135.296 27.88L136.592 28.132C135.566 31.786 133.784 34.774 131.354 36.7C131.156 36.448 130.67 35.944 130.382 35.71C132.758 33.982 134.414 31.192 135.296 27.88ZM137.168 31.444L138.446 31.768C138.014 32.704 137.528 33.712 137.15 34.396L136.106 34.09C136.484 33.37 136.952 32.236 137.168 31.444ZM124.676 29.104H131.03V30.346H124.676V29.104ZM126.494 34.36H130.562V42.244H126.494V41.056H129.374V35.566H126.494V34.36ZM126.8 29.698L128.096 29.896C127.538 33.676 126.602 37.222 124.928 39.58C124.784 39.274 124.406 38.608 124.154 38.302C125.594 36.268 126.368 33.082 126.8 29.698ZM125.936 34.36H127.07V43.648H125.936V34.36ZM152.9 29.14H154.142C153.764 32.056 152.882 34.972 149.732 36.538C149.588 36.25 149.21 35.8 148.922 35.584C151.856 34.234 152.594 31.606 152.9 29.14ZM149.588 31.714L150.254 30.778C152.126 31.408 154.376 32.524 155.564 33.352L154.916 34.414C153.71 33.532 151.46 32.344 149.588 31.714ZM157.148 28.654H158.426C158.426 28.654 158.426 29.05 158.408 29.23C158.228 33.478 158.048 35.08 157.598 35.602C157.31 35.944 157.004 36.07 156.518 36.124C156.086 36.16 155.24 36.142 154.394 36.106C154.376 35.728 154.25 35.206 154.052 34.882C154.88 34.954 155.636 34.954 155.924 34.954C156.212 34.972 156.374 34.918 156.5 34.774C156.824 34.396 157.004 32.956 157.148 28.888V28.654ZM151.622 38.248H152.882V42.586C152.882 43.036 152.954 43.108 153.458 43.108C153.692 43.108 154.862 43.108 155.15 43.108C155.636 43.108 155.708 42.856 155.762 41.056C156.014 41.272 156.554 41.452 156.914 41.56C156.77 43.756 156.428 44.314 155.294 44.314C155.006 44.314 153.584 44.314 153.296 44.314C151.928 44.314 151.622 43.936 151.622 42.604V38.248ZM149.912 38.86L151.01 39.13C150.812 40.732 150.434 42.478 149.48 43.486L148.472 42.82C149.336 41.938 149.732 40.354 149.912 38.86ZM151.928 36.592L152.72 35.8C153.908 36.43 155.294 37.402 155.96 38.158L155.114 39.076C154.466 38.32 153.098 37.276 151.928 36.592ZM156.122 38.986L157.238 38.536C158.21 39.85 159.02 41.614 159.29 42.838L158.084 43.342C157.85 42.118 157.058 40.3 156.122 38.986ZM149.75 28.654H157.706V29.824H149.75V28.654ZM143.234 33.334H148.346V34.414H143.234V33.334ZM143.306 28.528H148.274V29.608H143.306V28.528ZM143.234 35.746H148.346V36.826H143.234V35.746ZM142.424 30.886H148.85V32.002H142.424V30.886ZM143.828 38.176H148.346V43.432H143.828V42.298H147.176V39.292H143.828V38.176ZM143.216 38.176H144.368V44.26H143.216V38.176ZM167.804 29.482H177.038V30.778H167.804V29.482ZM172.25 30.022H173.6V42.676C173.6 43.594 173.384 43.99 172.79 44.206C172.196 44.44 171.17 44.458 169.586 44.458C169.532 44.08 169.298 43.486 169.1 43.072C170.324 43.126 171.458 43.126 171.8 43.108C172.142 43.108 172.25 43 172.25 42.676V30.022ZM161.27 33.334H166.886V34.414H161.27V33.334ZM161.378 28.528H166.904V29.608H161.378V28.528ZM161.27 35.746H166.886V36.826H161.27V35.746ZM160.424 30.886H167.588V32.002H160.424V30.886ZM161.9 38.176H166.832V43.432H161.9V42.298H165.626V39.292H161.9V38.176ZM161.252 38.176H162.458V44.26H161.252V38.176ZM185.984 33.64H187.37V44.44H185.984V33.64ZM181.898 36.682V38.248H191.69V36.682H181.898ZM181.898 34.108V35.638H191.69V34.108H181.898ZM180.584 33.01H193.058V39.328H180.584V33.01ZM178.766 40.714H194.732V41.902H178.766V40.714ZM181.322 29.5V31.21H184.778V29.5H181.322ZM180.098 28.6H186.038V32.11H180.098V28.6ZM188.72 29.5V31.21H192.212V29.5H188.72ZM187.496 28.6H193.49V32.11H187.496V28.6ZM197.918 28.996H203.084V39.742H197.918V38.482H201.824V30.238H197.918V28.996ZM197.936 33.658H202.364V34.882H197.936V33.658ZM205.532 28.654H211.598V29.914H205.532V28.654ZM205.532 33.028H211.598V34.27H205.532V33.028ZM205.424 37.456H211.562V38.68H205.424V37.456ZM197.18 28.996H198.44V41.416H197.18V28.996ZM211.094 28.654H212.444V42.676C212.444 43.522 212.228 43.936 211.652 44.17C211.076 44.386 210.086 44.404 208.538 44.404C208.466 44.044 208.25 43.45 208.052 43.09C209.204 43.126 210.338 43.108 210.662 43.108C210.986 43.09 211.094 42.982 211.094 42.658V28.654ZM204.74 28.654H206.072V35.08C206.072 38.104 205.622 42.082 202.382 44.566C202.184 44.296 201.68 43.828 201.392 43.648C204.434 41.308 204.74 37.888 204.74 35.08V28.654ZM225.512 29.878H226.718V42.748H225.512V29.878ZM221.948 29.32H230.462V44.08H229.202V30.58H223.172V44.224H221.948V29.32ZM222.614 35.566H229.76V36.808H222.614V35.566ZM222.614 41.992H229.706V43.234H222.614V41.992ZM217.466 36.358H218.672V44.422H217.466V36.358ZM217.286 27.88L218.492 28.366C217.808 29.698 216.926 31.3 216.224 32.308L215.27 31.876C215.972 30.832 216.818 29.086 217.286 27.88ZM219.5 29.95L220.652 30.508C219.392 32.506 217.61 35.062 216.224 36.61L215.378 36.124C216.764 34.54 218.51 31.858 219.5 29.95ZM214.406 31.732L215.09 30.832C216.062 31.642 217.178 32.794 217.664 33.568L216.944 34.612C216.476 33.784 215.36 32.56 214.406 31.732ZM218.996 34.072L220.022 33.622C220.814 34.792 221.606 36.34 221.912 37.348L220.832 37.87C220.544 36.862 219.77 35.26 218.996 34.072ZM214.28 35.836C215.918 35.746 218.348 35.584 220.76 35.404L220.778 36.502C218.528 36.7 216.224 36.916 214.478 37.078L214.28 35.836ZM219.32 38.428L220.364 38.104C220.886 39.202 221.39 40.642 221.606 41.596L220.472 41.974C220.31 41.02 219.824 39.544 219.32 38.428ZM215.396 38.158L216.566 38.374C216.332 40.066 215.9 41.812 215.342 42.964C215.108 42.82 214.568 42.568 214.262 42.46C214.856 41.362 215.198 39.742 215.396 38.158Z" fill="#90957A"/>
<path d="M521.9 43.552C519.723 43.552 518.021 43.1073 516.794 42.218C515.567 41.3287 514.954 40.24 514.954 38.952C514.954 38.0627 515.215 37.4033 515.736 36.974C516.288 36.514 516.932 36.284 517.668 36.284C518.465 36.284 519.063 36.514 519.462 36.974C519.891 37.434 520.106 37.94 520.106 38.492C520.106 39.0133 519.983 39.4273 519.738 39.734C519.493 40.0407 519.37 40.378 519.37 40.746C519.37 41.0833 519.585 41.39 520.014 41.666C520.474 41.9113 521.256 42.034 522.36 42.034C523.985 42.034 525.151 41.758 525.856 41.206C526.592 40.6233 526.96 39.964 526.96 39.228C526.96 38.492 526.669 37.8327 526.086 37.25C525.503 36.6673 524.767 36.1153 523.878 35.594C523.019 35.042 522.145 34.4593 521.256 33.846C520.367 33.202 519.631 32.4507 519.048 31.592C518.465 30.7333 518.174 29.6907 518.174 28.464C518.174 27.268 518.496 26.1793 519.14 25.198C519.815 24.186 520.735 23.3887 521.9 22.806C523.096 22.1927 524.476 21.886 526.04 21.886C527.205 21.886 528.233 22.0547 529.122 22.392C530.011 22.7293 530.717 23.1893 531.238 23.772C531.79 24.3547 532.066 25.0293 532.066 25.796C532.066 26.44 531.851 26.992 531.422 27.452C531.023 27.912 530.441 28.142 529.674 28.142C528.969 28.142 528.417 27.958 528.018 27.59C527.65 27.1913 527.466 26.7313 527.466 26.21C527.466 25.8113 527.527 25.474 527.65 25.198C527.803 24.922 527.88 24.646 527.88 24.37C527.88 23.9407 527.65 23.6493 527.19 23.496C526.761 23.312 526.239 23.22 525.626 23.22C524.737 23.22 523.924 23.404 523.188 23.772C522.452 24.14 522.084 24.7073 522.084 25.474C522.084 26.1487 522.375 26.762 522.958 27.314C523.571 27.8353 524.323 28.3567 525.212 28.878C526.101 29.3993 526.975 29.9973 527.834 30.672C528.723 31.316 529.459 32.098 530.042 33.018C530.655 33.9073 530.962 35.0113 530.962 36.33C530.962 37.7407 530.563 38.998 529.766 40.102C528.969 41.1753 527.88 42.0187 526.5 42.632C525.151 43.2453 523.617 43.552 521.9 43.552ZM539.314 43.552C537.934 43.552 536.937 43.2147 536.324 42.54C535.71 41.8653 535.404 41.0527 535.404 40.102C535.404 39.734 535.434 39.32 535.496 38.86C535.588 38.3693 535.664 37.9553 535.726 37.618L540.556 16.78H546.306L541.062 38.86C540.97 39.2587 540.908 39.5807 540.878 39.826C540.847 40.0713 540.832 40.24 540.832 40.332C540.832 40.976 541.154 41.298 541.798 41.298C542.442 41.298 543.208 40.8993 544.098 40.102C545.018 39.3047 545.968 37.8787 546.95 35.824L548.008 36.238C547.425 37.71 546.674 38.998 545.754 40.102C544.864 41.1753 543.868 42.0187 542.764 42.632C541.69 43.2453 540.54 43.552 539.314 43.552ZM536.14 23.588V22.3H549.296V23.588H536.14ZM559.453 43.552C557.46 43.552 555.773 43.138 554.393 42.31C553.013 41.4513 551.955 40.3473 551.219 38.998C550.483 37.6487 550.115 36.2073 550.115 34.674C550.115 33.0487 550.483 31.4693 551.219 29.936C551.955 28.4027 552.952 27.0227 554.209 25.796C555.467 24.5387 556.893 23.5573 558.487 22.852C560.082 22.116 561.723 21.748 563.409 21.748C564.789 21.748 566.016 21.9933 567.089 22.484C568.163 22.944 569.006 23.6033 569.619 24.462C570.233 25.3207 570.539 26.302 570.539 27.406C570.539 28.602 570.156 29.6907 569.389 30.672C568.623 31.6533 567.488 32.4353 565.985 33.018C564.513 33.6007 562.735 33.892 560.649 33.892C559.883 33.892 559.07 33.8613 558.211 33.8C557.383 33.7387 556.632 33.662 555.957 33.57C555.313 33.478 554.899 33.4167 554.715 33.386L554.945 31.914C555.467 32.1287 556.034 32.2667 556.647 32.328C557.261 32.3587 558.058 32.374 559.039 32.374C560.634 32.374 561.922 32.1287 562.903 31.638C563.885 31.1167 564.605 30.4267 565.065 29.568C565.525 28.7093 565.755 27.7587 565.755 26.716C565.755 25.612 565.51 24.738 565.019 24.094C564.559 23.45 563.9 23.128 563.041 23.128C562.305 23.128 561.6 23.404 560.925 23.956C560.281 24.4773 559.668 25.3207 559.085 26.486C558.533 27.6207 558.027 29.108 557.567 30.948C557.107 32.7573 556.724 34.95 556.417 37.526C556.264 39.0287 556.479 40.1327 557.061 40.838C557.675 41.5127 558.671 41.85 560.051 41.85C561.493 41.85 562.98 41.4667 564.513 40.7C566.047 39.9027 567.488 38.4767 568.837 36.422L569.895 37.204C568.761 39.136 567.304 40.6847 565.525 41.85C563.747 42.9847 561.723 43.552 559.453 43.552ZM569.583 56.478L577.495 22.3H583.337L575.241 56.478H569.583ZM566.133 57.306V55.972H579.795V57.306H566.133ZM584.487 43.552C583.107 43.552 582.003 43.2607 581.175 42.678C580.347 42.0953 579.703 41.3133 579.243 40.332H578.921L580.071 35.87C580.04 36.1767 580.01 36.468 579.979 36.744C579.948 36.9893 579.933 37.2193 579.933 37.434C579.933 38.6607 580.27 39.7187 580.945 40.608C581.62 41.4667 582.509 41.896 583.613 41.896C584.594 41.896 585.468 41.5433 586.235 40.838C587.002 40.102 587.661 39.1513 588.213 37.986C588.765 36.8207 589.225 35.5633 589.593 34.214C589.961 32.8647 590.222 31.5613 590.375 30.304C590.559 29.0467 590.651 27.9733 590.651 27.084C590.651 25.7347 590.467 24.7993 590.099 24.278C589.731 23.7567 589.179 23.496 588.443 23.496C587.738 23.496 586.91 23.7413 585.959 24.232C585.039 24.692 584.15 25.474 583.291 26.578C582.432 27.6513 581.727 29.0927 581.175 30.902L582.417 25.336H582.739C583.352 24.4467 584.226 23.634 585.361 22.898C586.496 22.1313 587.799 21.748 589.271 21.748C590.62 21.748 591.847 22.0853 592.951 22.76C594.086 23.4347 595.006 24.4007 595.711 25.658C596.416 26.8847 596.769 28.3873 596.769 30.166C596.769 31.8833 596.432 33.5393 595.757 35.134C595.082 36.7287 594.162 38.17 592.997 39.458C591.832 40.7153 590.513 41.712 589.041 42.448C587.569 43.184 586.051 43.552 584.487 43.552ZM573.171 23.588V22.3H582.785V23.588H573.171ZM602.052 43.552C601.04 43.552 600.166 43.1993 599.43 42.494C598.724 41.7887 598.372 40.93 598.372 39.918C598.372 38.8447 598.724 37.9553 599.43 37.25C600.166 36.5447 601.04 36.192 602.052 36.192C603.094 36.192 603.968 36.5447 604.674 37.25C605.41 37.9553 605.778 38.8447 605.778 39.918C605.778 40.93 605.41 41.7887 604.674 42.494C603.968 43.1993 603.094 43.552 602.052 43.552ZM608.618 43L609.492 39.274L619.336 31.454C621.391 29.8593 623.001 28.326 624.166 26.854C625.332 25.3513 626.16 23.8793 626.65 22.438C627.141 20.966 627.386 19.5093 627.386 18.068C627.386 15.9827 626.972 14.4493 626.144 13.468C625.347 12.4867 624.212 11.996 622.74 11.996C621.575 11.996 620.517 12.2567 619.566 12.778C618.616 13.2993 617.864 13.8973 617.312 14.572C616.76 15.216 616.484 15.768 616.484 16.228C616.484 16.6573 616.699 16.964 617.128 17.148C617.558 17.3013 618.048 17.4547 618.6 17.608C619.183 17.7613 619.689 18.0373 620.118 18.436C620.548 18.804 620.762 19.402 620.762 20.23C620.762 21.1807 620.456 21.932 619.842 22.484C619.229 23.0053 618.508 23.266 617.68 23.266C617.22 23.266 616.684 23.1433 616.07 22.898C615.488 22.6527 614.951 22.2233 614.46 21.61C614 20.9967 613.77 20.138 613.77 19.034C613.77 17.6847 614.154 16.366 614.92 15.078C615.687 13.7593 616.837 12.6707 618.37 11.812C619.934 10.9533 621.882 10.524 624.212 10.524C626.144 10.524 627.877 10.846 629.41 11.49C630.974 12.134 632.201 13.054 633.09 14.25C633.98 15.4153 634.424 16.8107 634.424 18.436C634.424 20 633.888 21.5947 632.814 23.22C631.741 24.8453 629.824 26.6087 627.064 28.51L614.552 37.434V37.618H627.202C627.785 37.618 628.26 37.526 628.628 37.342C628.996 37.158 629.318 36.7747 629.594 36.192C629.87 35.5787 630.146 34.6587 630.422 33.432H631.802L629.364 43H608.618ZM650.85 29.392H661.722V30.526H650.85V29.392ZM650.346 39.904H661.956V41.056H650.346V39.904ZM655.584 27.88H656.898V32.362H655.584V27.88ZM653.514 34.738V35.89H659.04V34.738H653.514ZM653.514 36.79V37.942H659.04V36.79H653.514ZM653.514 32.74V33.856H659.04V32.74H653.514ZM652.272 31.804H660.336V38.878H652.272V31.804ZM657.222 41.974L658.158 41.29C659.58 42.064 661.146 43.036 662.082 43.774L660.84 44.458C660.012 43.738 658.572 42.748 657.222 41.974ZM653.91 41.344L655.17 41.776C654.054 42.838 652.308 43.846 650.832 44.476C650.616 44.224 650.112 43.738 649.824 43.522C651.318 43 652.938 42.19 653.91 41.344ZM645.594 32.29H650.904V33.568H645.594V32.29ZM647.7 28.114H648.978V39.85H647.7V28.114ZM645.252 40.228C646.71 39.688 648.906 38.752 651.03 37.852L651.336 39.112C649.428 39.994 647.358 40.894 645.774 41.578L645.252 40.228ZM670.956 27.898H672.306V30.112H670.956V27.898ZM664.008 29.338H679.308V32.542H678.03V30.526H665.25V32.542H664.008V29.338ZM670.344 31.102L671.208 31.984C670.02 32.47 668.4 32.884 667.032 33.136C666.978 32.902 666.816 32.524 666.69 32.29C667.968 31.966 669.48 31.516 670.344 31.102ZM666.204 32.02L667.428 32.29V37.042H666.204V32.02ZM666.204 36.412H675.942V33.01H672.18V32.02H677.184V37.42H666.204V36.412ZM666.636 34.216H670.884V35.188H666.636V34.216ZM672.45 34.216H676.572V35.188H672.45V34.216ZM668.688 36.88L669.894 37.24C668.652 39.202 666.42 40.804 664.242 41.794C664.08 41.524 663.684 40.966 663.432 40.714C665.52 39.904 667.608 38.536 668.688 36.88ZM667.914 38.59H677.904V39.688H666.798L667.914 38.59ZM677.472 38.59H678.804C678.804 38.59 678.786 38.95 678.768 39.13C678.57 42.244 678.354 43.468 677.922 43.936C677.598 44.26 677.274 44.368 676.77 44.404C676.32 44.44 675.456 44.422 674.556 44.386C674.538 44.026 674.394 43.522 674.178 43.198C675.06 43.27 675.888 43.288 676.176 43.27C676.5 43.288 676.662 43.27 676.806 43.126C677.112 42.802 677.292 41.686 677.472 38.77V38.59ZM666.438 40.408L667.518 40.75C667.248 42.028 666.744 43.414 665.754 44.224L664.764 43.612C665.646 42.892 666.168 41.596 666.438 40.408ZM668.58 40.714L669.642 40.588C670.02 41.596 670.308 42.892 670.308 43.72L669.192 43.882C669.21 43.054 668.958 41.74 668.58 40.714ZM671.118 40.624L672.108 40.354C672.666 41.2 673.17 42.352 673.314 43.09L672.288 43.414C672.144 42.658 671.658 41.506 671.118 40.624ZM673.62 40.534L674.52 40.102C675.15 40.678 675.816 41.488 676.104 42.082L675.15 42.55C674.898 41.974 674.232 41.11 673.62 40.534ZM688.722 29.482H697.956V30.778H688.722V29.482ZM693.168 30.022H694.518V42.676C694.518 43.594 694.302 43.99 693.708 44.206C693.114 44.44 692.088 44.458 690.504 44.458C690.45 44.08 690.216 43.486 690.018 43.072C691.242 43.126 692.376 43.126 692.718 43.108C693.06 43.108 693.168 43 693.168 42.676V30.022ZM682.188 33.334H687.804V34.414H682.188V33.334ZM682.296 28.528H687.822V29.608H682.296V28.528ZM682.188 35.746H687.804V36.826H682.188V35.746ZM681.342 30.886H688.506V32.002H681.342V30.886ZM682.818 38.176H687.75V43.432H682.818V42.298H686.544V39.292H682.818V38.176ZM682.17 38.176H683.376V44.26H682.17V38.176ZM705.984 29.446H715.488V30.472H705.984V29.446ZM705.57 33.748H715.866V34.774H705.57V33.748ZM705.516 40.426H715.938V41.47H705.516V40.426ZM706.452 31.552H715.182V32.56H706.452V31.552ZM708.18 27.898H709.386V34.162H708.18V27.898ZM712.068 27.898H713.274V34.162H712.068V27.898ZM710.088 34.198H711.294V40.75H710.088V34.198ZM713.616 35.818H714.858V43.036C714.858 43.702 714.714 44.044 714.246 44.242C713.742 44.44 712.914 44.422 711.618 44.422C711.564 44.116 711.402 43.648 711.24 43.324C712.176 43.36 713.058 43.36 713.292 43.342C713.544 43.324 713.616 43.27 713.616 43.036V35.818ZM706.668 35.818H714.156V36.844H707.892V44.458H706.668V35.818ZM707.298 38.14H714.12V39.076H707.298V38.14ZM701.034 40.282L702.258 40.57C701.826 42.046 701.07 43.504 700.242 44.458C700.008 44.278 699.504 43.918 699.216 43.738C700.026 42.874 700.692 41.596 701.034 40.282ZM703.302 40.732L704.31 40.264C704.904 41.146 705.552 42.316 705.822 43.054L704.742 43.576C704.472 42.82 703.86 41.614 703.302 40.732ZM701.322 33.064V35.386H704.022V33.064H701.322ZM701.322 36.43V38.788H704.022V36.43H701.322ZM701.322 29.698V32.002H704.022V29.698H701.322ZM700.134 28.564H705.228V39.904H700.134V28.564ZM718.386 29.212L718.98 28.294C720.222 28.618 721.896 29.23 722.76 29.68L722.166 30.724C721.32 30.256 719.646 29.608 718.386 29.212ZM717.486 33.01C718.782 32.704 720.69 32.164 722.562 31.642L722.706 32.704C721.068 33.226 719.376 33.784 718.008 34.198L717.486 33.01ZM725.208 29.212H732.444V30.238H724.416L725.208 29.212ZM732.084 29.212H732.3L732.534 29.158L733.434 29.428C732.93 30.364 732.264 31.372 731.616 32.002L730.536 31.624C731.112 31.066 731.724 30.166 732.084 29.41V29.212ZM727.44 29.572H728.682C728.304 32.128 727.152 33.532 723.48 34.27C723.354 33.982 723.066 33.532 722.832 33.298C726.162 32.74 727.134 31.624 727.44 29.572ZM728.628 29.896C728.988 31.426 729.87 32.902 733.866 33.478C733.614 33.748 733.308 34.234 733.164 34.576C728.898 33.838 727.998 31.894 727.53 30.004L728.628 29.896ZM725.496 27.88L726.72 28.078C726.108 29.392 725.19 30.724 723.786 31.804C723.552 31.552 723.084 31.264 722.76 31.12C724.11 30.202 725.028 28.96 725.496 27.88ZM721.212 37.294V38.518H730.284V37.294H721.212ZM721.212 39.4V40.66H730.284V39.4H721.212ZM721.212 35.188V36.412H730.284V35.188H721.212ZM719.898 34.288H731.634V41.56H719.898V34.288ZM727.152 42.478L728.25 41.794C730.23 42.406 732.408 43.198 733.704 43.81L732.21 44.494C731.076 43.9 729.114 43.126 727.152 42.478ZM722.922 41.758L724.146 42.316C722.688 43.18 720.402 44.008 718.602 44.512C718.386 44.242 717.918 43.72 717.612 43.486C719.466 43.09 721.626 42.46 722.922 41.758ZM738.402 27.952H739.662V44.422H738.402V27.952ZM735.504 33.928H742.614V35.206H735.504V33.928ZM738.204 34.594L739.014 34.954C738.384 37.402 737.106 40.516 735.9 42.154C735.756 41.758 735.432 41.182 735.216 40.822C736.368 39.436 737.628 36.7 738.204 34.594ZM739.626 35.44C740.13 35.98 741.966 38.428 742.38 39.022L741.48 40.102C741.03 39.13 739.554 36.772 738.96 35.998L739.626 35.44ZM735.63 29.284L736.62 29.032C737.124 30.292 737.538 31.93 737.664 33.01L736.602 33.298C736.512 32.218 736.098 30.544 735.63 29.284ZM741.444 28.96L742.632 29.266C742.164 30.634 741.606 32.326 741.12 33.334L740.256 33.064C740.652 31.984 741.192 30.184 741.444 28.96ZM748.428 27.898H749.706V44.44H748.428V27.898ZM742.578 39.346L751.83 37.69L752.046 38.932L742.794 40.606L742.578 39.346ZM743.928 30.094L744.63 29.176C745.674 29.788 746.916 30.706 747.51 31.372L746.79 32.416C746.214 31.714 744.972 30.742 743.928 30.094ZM743.01 34.63L743.64 33.676C744.72 34.234 746.052 35.08 746.7 35.728L746.016 36.79C745.386 36.142 744.09 35.224 743.01 34.63Z" fill="#90957A"/>
<path d="M1042.9 43.552C1040.72 43.552 1039.02 43.1073 1037.79 42.218C1036.57 41.3287 1035.95 40.24 1035.95 38.952C1035.95 38.0627 1036.21 37.4033 1036.74 36.974C1037.29 36.514 1037.93 36.284 1038.67 36.284C1039.47 36.284 1040.06 36.514 1040.46 36.974C1040.89 37.434 1041.11 37.94 1041.11 38.492C1041.11 39.0133 1040.98 39.4273 1040.74 39.734C1040.49 40.0407 1040.37 40.378 1040.37 40.746C1040.37 41.0833 1040.58 41.39 1041.01 41.666C1041.47 41.9113 1042.26 42.034 1043.36 42.034C1044.99 42.034 1046.15 41.758 1046.86 41.206C1047.59 40.6233 1047.96 39.964 1047.96 39.228C1047.96 38.492 1047.67 37.8327 1047.09 37.25C1046.5 36.6673 1045.77 36.1153 1044.88 35.594C1044.02 35.042 1043.15 34.4593 1042.26 33.846C1041.37 33.202 1040.63 32.4507 1040.05 31.592C1039.47 30.7333 1039.17 29.6907 1039.17 28.464C1039.17 27.268 1039.5 26.1793 1040.14 25.198C1040.81 24.186 1041.73 23.3887 1042.9 22.806C1044.1 22.1927 1045.48 21.886 1047.04 21.886C1048.21 21.886 1049.23 22.0547 1050.12 22.392C1051.01 22.7293 1051.72 23.1893 1052.24 23.772C1052.79 24.3547 1053.07 25.0293 1053.07 25.796C1053.07 26.44 1052.85 26.992 1052.42 27.452C1052.02 27.912 1051.44 28.142 1050.67 28.142C1049.97 28.142 1049.42 27.958 1049.02 27.59C1048.65 27.1913 1048.47 26.7313 1048.47 26.21C1048.47 25.8113 1048.53 25.474 1048.65 25.198C1048.8 24.922 1048.88 24.646 1048.88 24.37C1048.88 23.9407 1048.65 23.6493 1048.19 23.496C1047.76 23.312 1047.24 23.22 1046.63 23.22C1045.74 23.22 1044.92 23.404 1044.19 23.772C1043.45 24.14 1043.08 24.7073 1043.08 25.474C1043.08 26.1487 1043.38 26.762 1043.96 27.314C1044.57 27.8353 1045.32 28.3567 1046.21 28.878C1047.1 29.3993 1047.98 29.9973 1048.83 30.672C1049.72 31.316 1050.46 32.098 1051.04 33.018C1051.66 33.9073 1051.96 35.0113 1051.96 36.33C1051.96 37.7407 1051.56 38.998 1050.77 40.102C1049.97 41.1753 1048.88 42.0187 1047.5 42.632C1046.15 43.2453 1044.62 43.552 1042.9 43.552ZM1060.31 43.552C1058.93 43.552 1057.94 43.2147 1057.32 42.54C1056.71 41.8653 1056.4 41.0527 1056.4 40.102C1056.4 39.734 1056.43 39.32 1056.5 38.86C1056.59 38.3693 1056.66 37.9553 1056.73 37.618L1061.56 16.78H1067.31L1062.06 38.86C1061.97 39.2587 1061.91 39.5807 1061.88 39.826C1061.85 40.0713 1061.83 40.24 1061.83 40.332C1061.83 40.976 1062.15 41.298 1062.8 41.298C1063.44 41.298 1064.21 40.8993 1065.1 40.102C1066.02 39.3047 1066.97 37.8787 1067.95 35.824L1069.01 36.238C1068.42 37.71 1067.67 38.998 1066.75 40.102C1065.86 41.1753 1064.87 42.0187 1063.76 42.632C1062.69 43.2453 1061.54 43.552 1060.31 43.552ZM1057.14 23.588V22.3H1070.3V23.588H1057.14ZM1080.45 43.552C1078.46 43.552 1076.77 43.138 1075.39 42.31C1074.01 41.4513 1072.96 40.3473 1072.22 38.998C1071.48 37.6487 1071.12 36.2073 1071.12 34.674C1071.12 33.0487 1071.48 31.4693 1072.22 29.936C1072.96 28.4027 1073.95 27.0227 1075.21 25.796C1076.47 24.5387 1077.89 23.5573 1079.49 22.852C1081.08 22.116 1082.72 21.748 1084.41 21.748C1085.79 21.748 1087.02 21.9933 1088.09 22.484C1089.16 22.944 1090.01 23.6033 1090.62 24.462C1091.23 25.3207 1091.54 26.302 1091.54 27.406C1091.54 28.602 1091.16 29.6907 1090.39 30.672C1089.62 31.6533 1088.49 32.4353 1086.99 33.018C1085.51 33.6007 1083.73 33.892 1081.65 33.892C1080.88 33.892 1080.07 33.8613 1079.21 33.8C1078.38 33.7387 1077.63 33.662 1076.96 33.57C1076.31 33.478 1075.9 33.4167 1075.72 33.386L1075.95 31.914C1076.47 32.1287 1077.03 32.2667 1077.65 32.328C1078.26 32.3587 1079.06 32.374 1080.04 32.374C1081.63 32.374 1082.92 32.1287 1083.9 31.638C1084.88 31.1167 1085.61 30.4267 1086.07 29.568C1086.53 28.7093 1086.76 27.7587 1086.76 26.716C1086.76 25.612 1086.51 24.738 1086.02 24.094C1085.56 23.45 1084.9 23.128 1084.04 23.128C1083.31 23.128 1082.6 23.404 1081.93 23.956C1081.28 24.4773 1080.67 25.3207 1080.09 26.486C1079.53 27.6207 1079.03 29.108 1078.57 30.948C1078.11 32.7573 1077.72 34.95 1077.42 37.526C1077.26 39.0287 1077.48 40.1327 1078.06 40.838C1078.67 41.5127 1079.67 41.85 1081.05 41.85C1082.49 41.85 1083.98 41.4667 1085.51 40.7C1087.05 39.9027 1088.49 38.4767 1089.84 36.422L1090.9 37.204C1089.76 39.136 1088.3 40.6847 1086.53 41.85C1084.75 42.9847 1082.72 43.552 1080.45 43.552ZM1090.58 56.478L1098.49 22.3H1104.34L1096.24 56.478H1090.58ZM1087.13 57.306V55.972H1100.79V57.306H1087.13ZM1105.49 43.552C1104.11 43.552 1103 43.2607 1102.17 42.678C1101.35 42.0953 1100.7 41.3133 1100.24 40.332H1099.92L1101.07 35.87C1101.04 36.1767 1101.01 36.468 1100.98 36.744C1100.95 36.9893 1100.93 37.2193 1100.93 37.434C1100.93 38.6607 1101.27 39.7187 1101.94 40.608C1102.62 41.4667 1103.51 41.896 1104.61 41.896C1105.59 41.896 1106.47 41.5433 1107.23 40.838C1108 40.102 1108.66 39.1513 1109.21 37.986C1109.76 36.8207 1110.22 35.5633 1110.59 34.214C1110.96 32.8647 1111.22 31.5613 1111.37 30.304C1111.56 29.0467 1111.65 27.9733 1111.65 27.084C1111.65 25.7347 1111.47 24.7993 1111.1 24.278C1110.73 23.7567 1110.18 23.496 1109.44 23.496C1108.74 23.496 1107.91 23.7413 1106.96 24.232C1106.04 24.692 1105.15 25.474 1104.29 26.578C1103.43 27.6513 1102.73 29.0927 1102.17 30.902L1103.42 25.336H1103.74C1104.35 24.4467 1105.23 23.634 1106.36 22.898C1107.5 22.1313 1108.8 21.748 1110.27 21.748C1111.62 21.748 1112.85 22.0853 1113.95 22.76C1115.09 23.4347 1116.01 24.4007 1116.71 25.658C1117.42 26.8847 1117.77 28.3873 1117.77 30.166C1117.77 31.8833 1117.43 33.5393 1116.76 35.134C1116.08 36.7287 1115.16 38.17 1114 39.458C1112.83 40.7153 1111.51 41.712 1110.04 42.448C1108.57 43.184 1107.05 43.552 1105.49 43.552ZM1094.17 23.588V22.3H1103.78V23.588H1094.17ZM1123.05 43.552C1122.04 43.552 1121.17 43.1993 1120.43 42.494C1119.72 41.7887 1119.37 40.93 1119.37 39.918C1119.37 38.8447 1119.72 37.9553 1120.43 37.25C1121.17 36.5447 1122.04 36.192 1123.05 36.192C1124.09 36.192 1124.97 36.5447 1125.67 37.25C1126.41 37.9553 1126.78 38.8447 1126.78 39.918C1126.78 40.93 1126.41 41.7887 1125.67 42.494C1124.97 43.1993 1124.09 43.552 1123.05 43.552ZM1139.37 43.598C1137.35 43.598 1135.69 43.322 1134.4 42.77C1133.11 42.218 1132.16 41.4973 1131.55 40.608C1130.97 39.7187 1130.68 38.7833 1130.68 37.802C1130.68 36.8207 1130.92 35.9773 1131.41 35.272C1131.93 34.5667 1132.7 34.214 1133.71 34.214C1134.51 34.214 1135.17 34.4593 1135.69 34.95C1136.21 35.41 1136.47 36.0233 1136.47 36.79C1136.47 37.3727 1136.32 37.8327 1136.01 38.17C1135.74 38.4767 1135.41 38.722 1135.05 38.906C1134.68 39.09 1134.34 39.2587 1134.03 39.412C1133.76 39.5653 1133.62 39.7953 1133.62 40.102C1133.62 40.5007 1133.88 40.8687 1134.4 41.206C1134.95 41.5433 1135.63 41.8193 1136.43 42.034C1137.22 42.218 1138.02 42.31 1138.82 42.31C1139.98 42.31 1141.01 42.08 1141.9 41.62C1142.82 41.1293 1143.6 40.47 1144.25 39.642C1144.89 38.7833 1145.37 37.756 1145.67 36.56C1146.01 35.364 1146.18 34.0453 1146.18 32.604C1146.18 30.396 1145.75 28.8167 1144.89 27.866C1144.06 26.9153 1142.74 26.44 1140.93 26.44C1140.54 26.44 1140.21 26.486 1139.97 26.578C1139.75 26.6393 1139.55 26.7007 1139.37 26.762C1139.19 26.8233 1138.94 26.854 1138.63 26.854C1138.11 26.854 1137.74 26.7467 1137.53 26.532C1137.32 26.3173 1137.21 26.072 1137.21 25.796C1137.21 25.428 1137.33 25.152 1137.58 24.968C1137.85 24.7533 1138.14 24.646 1138.45 24.646C1138.7 24.646 1139.06 24.692 1139.55 24.784C1140.04 24.876 1140.57 24.922 1141.12 24.922C1142.34 24.922 1143.4 24.6153 1144.29 24.002C1145.21 23.358 1145.98 22.5607 1146.59 21.61C1147.21 20.6593 1147.65 19.6473 1147.93 18.574C1148.23 17.47 1148.39 16.458 1148.39 15.538C1148.39 14.1273 1148.03 13.1153 1147.33 12.502C1146.65 11.8887 1145.66 11.582 1144.34 11.582C1143.2 11.582 1142.28 11.766 1141.58 12.134C1140.87 12.502 1140.52 12.9773 1140.52 13.56C1140.52 13.928 1140.64 14.2193 1140.89 14.434C1141.13 14.6487 1141.38 14.8787 1141.62 15.124C1141.87 15.3693 1141.99 15.7527 1141.99 16.274C1141.99 16.9793 1141.73 17.5927 1141.21 18.114C1140.72 18.6047 1140.08 18.85 1139.28 18.85C1138.63 18.85 1138.04 18.6353 1137.48 18.206C1136.93 17.7767 1136.66 17.0867 1136.66 16.136C1136.66 15.032 1137.04 14.0507 1137.81 13.192C1138.6 12.3027 1139.69 11.5973 1141.07 11.076C1142.45 10.5547 1143.99 10.294 1145.67 10.294C1147.6 10.294 1149.21 10.6007 1150.5 11.214C1151.82 11.8273 1152.8 12.64 1153.45 13.652C1154.09 14.664 1154.41 15.7373 1154.41 16.872C1154.41 18.6507 1153.61 20.322 1152.02 21.886C1150.43 23.4193 1148.09 24.6153 1145.03 25.474V25.704C1146.41 25.704 1147.71 26.0413 1148.94 26.716C1150.2 27.3907 1151.22 28.3107 1152.02 29.476C1152.82 30.6413 1153.22 31.9753 1153.22 33.478C1153.22 34.7967 1152.88 36.0693 1152.2 37.296C1151.53 38.492 1150.56 39.5653 1149.31 40.516C1148.08 41.4667 1146.62 42.218 1144.94 42.77C1143.25 43.322 1141.39 43.598 1139.37 43.598ZM1174.89 33.118H1184.69V34.342H1174.89V33.118ZM1171.82 36.43H1187.78V37.708H1171.82V36.43ZM1176.55 37.312H1177.99C1177.61 40.822 1176.6 43.252 1172.21 44.476C1172.07 44.134 1171.71 43.594 1171.42 43.324C1175.47 42.316 1176.24 40.246 1176.55 37.312ZM1181.1 37.204H1182.45V42.262C1182.45 42.802 1182.58 42.892 1183.34 42.892C1183.7 42.892 1185.41 42.892 1185.87 42.892C1186.56 42.892 1186.68 42.568 1186.74 40.498C1187.03 40.714 1187.6 40.93 1187.96 41.038C1187.82 43.504 1187.42 44.134 1185.98 44.134C1185.62 44.134 1183.55 44.134 1183.19 44.134C1181.54 44.134 1181.1 43.72 1181.1 42.28V37.204ZM1179.05 27.898H1180.47V30.76H1179.05V27.898ZM1172.23 29.824H1187.37V33.64H1185.95V31.102H1173.6V33.64H1172.23V29.824ZM1191.87 34.63H1196.35V35.89H1191.87V34.63ZM1195.81 34.63H1197.12C1197.12 34.63 1197.12 35.026 1197.12 35.206C1197.03 39.274 1196.93 40.786 1196.55 41.29C1196.26 41.614 1195.97 41.74 1195.47 41.794C1195 41.848 1194.19 41.83 1193.31 41.794C1193.27 41.398 1193.13 40.876 1192.93 40.534C1193.74 40.606 1194.53 40.606 1194.84 40.606C1195.09 40.606 1195.27 40.588 1195.4 40.426C1195.67 40.102 1195.76 38.752 1195.81 34.864V34.63ZM1200.89 28.798L1201.7 27.952C1202.81 28.528 1204.23 29.392 1204.94 30.022L1204.09 30.94C1203.41 30.31 1202.02 29.392 1200.89 28.798ZM1203.46 33.676L1204.81 34C1203.28 38.698 1200.6 42.172 1196.91 44.35C1196.71 44.08 1196.21 43.522 1195.92 43.252C1199.57 41.308 1202.11 38.014 1203.46 33.676ZM1191.98 30.94H1205.91V32.272H1191.98V30.94ZM1191.11 30.94H1192.52V36.016C1192.52 38.572 1192.23 42.208 1190.59 44.566C1190.36 44.296 1189.78 43.828 1189.46 43.666C1190.95 41.452 1191.11 38.356 1191.11 35.998V30.94ZM1198.58 27.916H1199.99C1199.95 36.196 1201.71 42.946 1204.05 42.946C1204.56 42.946 1204.79 42.01 1204.9 39.616C1205.21 39.922 1205.71 40.228 1206.07 40.354C1205.82 43.432 1205.31 44.314 1203.95 44.314C1200.27 44.314 1198.65 36.538 1198.58 27.916ZM1214.87 29.482H1224.11V30.778H1214.87V29.482ZM1219.32 30.022H1220.67V42.676C1220.67 43.594 1220.45 43.99 1219.86 44.206C1219.26 44.44 1218.24 44.458 1216.65 44.458C1216.6 44.08 1216.37 43.486 1216.17 43.072C1217.39 43.126 1218.53 43.126 1218.87 43.108C1219.21 43.108 1219.32 43 1219.32 42.676V30.022ZM1208.34 33.334H1213.95V34.414H1208.34V33.334ZM1208.45 28.528H1213.97V29.608H1208.45V28.528ZM1208.34 35.746H1213.95V36.826H1208.34V35.746ZM1207.49 30.886H1214.66V32.002H1207.49V30.886ZM1208.97 38.176H1213.9V43.432H1208.97V42.298H1212.69V39.292H1208.97V38.176ZM1208.32 38.176H1209.53V44.26H1208.32V38.176ZM1233.05 33.64H1234.44V44.44H1233.05V33.64ZM1228.97 36.682V38.248H1238.76V36.682H1228.97ZM1228.97 34.108V35.638H1238.76V34.108H1228.97ZM1227.65 33.01H1240.13V39.328H1227.65V33.01ZM1225.83 40.714H1241.8V41.902H1225.83V40.714ZM1228.39 29.5V31.21H1231.85V29.5H1228.39ZM1227.17 28.6H1233.11V32.11H1227.17V28.6ZM1235.79 29.5V31.21H1239.28V29.5H1235.79ZM1234.56 28.6H1240.56V32.11H1234.56V28.6Z" fill="#EDEDED"/>
<line x1="310" y1="36.5" x2="478" y2="36.5" stroke="#90957A"/>
<line x1="831" y1="36.5" x2="999" y2="36.5" stroke="#EDEDED"/>
</svg>
